0
SECTION
2
HEADER
9
$INSUNITS
70
4
9
$ACADVER
1
AC1014
9
$HANDSEED
5
FFFF
0
ENDSEC
0
SECTION
2
TABLES
0
TABLE
2
VPORT
5
8
100
AcDbSymbolTable
0
ENDTAB
0
TABLE
2
LTYPE
5
5
100
AcDbSymbolTable
0
LTYPE
5
14
100
AcDbSymbolTableRecord
100
AcDbLinetypeTableRecord
2
BYBLOCK
70
0
0
LTYPE
5
15
100
AcDbSymbolTableRecord
100
AcDbLinetypeTableRecord
2
BYLAYER
70
0
0
ENDTAB
0
TABLE
2
LAYER
5
2
100
AcDbSymbolTable
70
2
0
LAYER
5
50
100
AcDbSymbolTableRecord
100
AcDbLayerTableRecord
2
0
70
0
6
CONTINUOUS
0
ENDTAB
0
TABLE
2
STYLE
5
3
100
AcDbSymbolTable
70
1
0
STYLE
5
11
100
AcDbSymbolTableRecord
100
AcDbTextStyleTableRecord
2
STANDARD
70
0
0
ENDTAB
0
TABLE
2
VIEW
5
6
100
AcDbSymbolTable
70
0
0
ENDTAB
0
TABLE
2
UCS
5
7
100
AcDbSymbolTable
70
0
0
ENDTAB
0
TABLE
2
APPID
5
9
100
AcDbSymbolTable
70
2
0
APPID
5
12
100
AcDbSymbolTableRecord
100
AcDbRegAppTableRecord
2
ACAD
70
0
0
ENDTAB
0
TABLE
2
DIMSTYLE
5
A
100
AcDbSymbolTable
70
1
0
ENDTAB
0
TABLE
2
BLOCK_RECORD
5
1
100
AcDbSymbolTable
70
1
0
BLOCK_RECORD
5
1F
100
AcDbSymbolTableRecord
100
AcDbBlockTableRecord
2
*MODEL_SPACE
0
BLOCK_RECORD
5
1B
100
AcDbSymbolTableRecord
100
AcDbBlockTableRecord
2
*PAPER_SPACE
0
ENDTAB
0
ENDSEC
0
SECTION
2
BLOCKS
0
BLOCK
5
20
100
AcDbEntity
100
AcDbBlockBegin
2
*MODEL_SPACE
0
ENDBLK
5
21
100
AcDbEntity
100
AcDbBlockEnd
0
BLOCK
5
1C
100
AcDbEntity
100
AcDbBlockBegin
2
*PAPER_SPACE
0
ENDBLK
5
1D
100
AcDbEntity
100
AcDbBlockEnd
0
ENDSEC
0
SECTION
2
ENTITIES
0
SPLINE
5
100
100
AcDbEntity
8
0
100
AcDbSpline
70
4
71
3
72
8
73
4
74
0
42
0.000000001
43
0.0000000001
44
0.0000000001
40
0
40
0
40
0
40
0
40
1
40
1
40
1
40
1
41
1
41
1
41
1
41
1
10
29.762387355168684
20
21.201855055491126
30
0
10
30.569367329279608
20
19.114954821268704
30
0
10
30.787649790445982
20
17.236415576934803
30
0
10
30.430456638336199
20
15.457091045379626
30
0
0
SPLINE
5
101
100
AcDbEntity
8
0
100
AcDbSpline
70
4
71
3
72
8
73
4
74
0
42
0.000000001
43
0.0000000001
44
0.0000000001
40
0
40
0
40
0
40
0
40
1
40
1
40
1
40
1
41
1
41
1
41
1
41
1
10
-15.815428574879958
20
29.136034440994241
30
0
10
-15.977487683296189
20
28.858223152160623
30
0
10
-16.040321985880524
20
28.600254805882756
30
0
10
-16.070091446240731
20
28.464654636383035
30
0
0
SPLINE
5
102
100
AcDbEntity
8
0
100
AcDbSpline
70
4
71
3
72
8
73
4
74
0
42
0.000000001
43
0.0000000001
44
0.0000000001
40
0
40
0
40
0
40
0
40
1
40
1
40
1
40
1
41
1
41
1
41
1
41
1
10
30.430456638336199
20
15.457091045379626
30
0
10
30.377538760503136
20
15.19251174926757
30
0
10
30.364306767781603
20
14.954386345545444
30
0
10
30.377538760503136
20
14.739404312769565
30
0
0
SPLINE
5
103
100
AcDbEntity
8
0
100
AcDbSpline
70
4
71
3
72
8
73
4
74
0
42
0.000000001
43
0.0000000001
44
0.0000000001
40
0
40
0
40
0
40
0
40
1
40
1
40
1
40
1
41
1
41
1
41
1
41
1
10
26.732906977335627
20
11.812449169158914
30
0
10
26.70975351333621
20
11.7892957051595
30
0
10
26.689910570780462
20
11.762841812769567
30
0
10
26.666757106781027
20
11.739688348770127
30
0
0
SPLINE
5
104
100
AcDbEntity
8
0
100
AcDbSpline
70
4
71
3
72
8
73
4
74
0
42
0.000000001
43
0.0000000001
44
0.0000000001
40
0
40
0
40
0
40
0
40
1
40
1
40
1
40
1
41
1
41
1
41
1
41
1
10
4.8353215853373355
20
31.103877019882201
30
0
10
4.0680274963379093
20
30.716919453938797
30
0
10
3.3305079142252758
20
30.197682332992542
30
0
10
2.6095106601715301
20
29.53622399965921
30
0
0
LINE
5
105
100
AcDbEntity
8
0
100
AcDbLine
10
-16.407436609268178
20
27.307102553049699
30
0
11
-16.099860906600941
21
27.055745156606026
31
0
0
SPLINE
5
106
100
AcDbEntity
8
0
100
AcDbSpline
70
4
71
3
72
8
73
4
74
0
42
0.000000001
43
0.0000000001
44
0.0000000001
40
0
40
0
40
0
40
0
40
1
40
1
40
1
40
1
41
1
41
1
41
1
41
1
10
26.666757106781027
20
11.739688348770127
30
0
10
26.309574047724418
20
13.429709545771276
30
0
10
25.674569606781013
20
15.086665900548279
30
0
10
24.758453448613501
20
16.730390262603745
30
0
0
LINE
5
107
100
AcDbEntity
8
0
100
AcDbLine
10
-16.070091446240731
20
28.464654636383035
30
0
11
-16.407436609268178
21
27.307102553049699
31
0
0
SPLINE
5
108
100
AcDbEntity
8
0
100
AcDbSpline
70
4
71
3
72
8
73
4
74
0
42
0.000000001
43
0.0000000001
44
0.0000000001
40
0
40
0
40
0
40
0
40
1
40
1
40
1
40
1
41
1
41
1
41
1
41
1
10
6.4228276411692473
20
42.193225574493383
30
0
10
6.2574630578359081
20
42.262675873438496
30
0
10
5.9300444126129204
20
42.388354571660365
30
0
10
5.5166329542795856
20
42.388354571660365
30
0
0
SPLINE
5
109
100
AcDbEntity
8
0
100
AcDbSpline
70
4
71
3
72
8
73
4
74
0
42
0.000000001
43
0.0000000001
44
0.0000000001
40
0
40
0
40
0
40
0
40
1
40
1
40
1
40
1
41
1
41
1
41
1
41
1
10
-29.209969917933133
20
14.841919453938779
30
0
10
-29.176894982655845
20
15.13296273549396
30
0
10
-29.186816453933716
20
15.414084545771267
30
0
10
-29.200048446655277
20
15.655510377883886
30
0
0
SPLINE
5
110
100
AcDbEntity
8
0
100
AcDbSpline
70
4
71
3
72
8
73
4
74
0
42
0.000000001
43
0.0000000001
44
0.0000000001
40
0
40
0
40
0
40
0
40
1
40
1
40
1
40
1
41
1
41
1
41
1
41
1
10
-1.5411464373270589
20
39.600310118993114
30
0
10
-1.2368711630503262
20
40.566043726603169
30
0
10
-1.5378359158833699
20
41.247345002492253
30
0
10
-1.8454217116037919
20
41.647524468104024
30
0
0
SPLINE
5
111
100
AcDbEntity
8
0
100
AcDbSpline
70
4
71
3
72
8
73
4
74
0
42
0.000000001
43
0.0000000001
44
0.0000000001
40
0
40
0
40
0
40
0
40
1
40
1
40
1
40
1
41
1
41
1
41
1
41
1
10
-25.016321460405987
20
13.899339310328141
30
0
10
-25.237909396489457
20
13.267645390828431
30
0
10
-25.462807854016614
20
12.626030000050847
30
0
10
-25.664552847544346
20
11.97449313799539
30
0
0
SPLINE
5
112
100
AcDbEntity
8
0
100
AcDbSpline
70
4
71
3
72
8
73
4
74
0
42
0.000000001
43
0.0000000001
44
0.0000000001
40
0
40
0
40
0
40
0
40
1
40
1
40
1
40
1
41
1
41
1
41
1
41
1
10
-28.806479930877671
20
19.442363373438504
30
0
10
-28.525358120600373
20
20.540386629104606
30
0
10
-28.158248543739308
20
21.615256420771271
30
0
10
-27.77460654576619
20
22.749655040105175
30
0
0
LINE
5
113
100
AcDbEntity
8
0
100
AcDbLine
10
-24.927023172378529
20
14.157307656606035
30
0
11
-25.016321460405987
21
13.899339310328141
31
0
0
SPLINE
5
114
100
AcDbEntity
8
0
100
AcDbSpline
70
4
71
3
72
8
73
4
74
0
42
0.000000001
43
0.0000000001
44
0.0000000001
40
0
40
0
40
0
40
0
40
1
40
1
40
1
40
1
41
1
41
1
41
1
41
1
10
-19.294705867767327
20
23.169677448272697
30
0
10
-19.721344272295628
20
22.61074434916177
30
0
10
-20.16121466954548
20
22.035278828938793
30
0
10
-20.597779591878243
20
21.482956679662042
30
0
0
SPLINE
5
115
100
AcDbEntity
8
0
100
AcDbSpline
70
4
71
3
72
8
73
4
74
0
42
0.000000001
43
0.0000000001
44
0.0000000001
40
0
40
0
40
0
40
0
40
1
40
1
40
1
40
1
41
1
41
1
41
1
41
1
10
29.153846899668384
20
22.736443233489979
30
0
10
29.358897368113226
20
22.227117490768428
30
0
10
29.563947836558032
20
21.714491319656346
30
0
10
29.762387355168684
20
21.201855055491126
30
0
0
LINE
5
116
100
AcDbEntity
8
0
100
AcDbLine
10
18.375384569168109
20
26.090021642049145
30
0
11
17.793298006057753
21
28.315832567214954
31
0
0
SPLINE
5
117
100
AcDbEntity
8
0
100
AcDbSpline
70
4
71
3
72
8
73
4
74
0
42
0.000000001
43
0.0000000001
44
0.0000000001
40
0
40
0
40
0
40
0
40
1
40
1
40
1
40
1
41
1
41
1
41
1
41
1
10
30.377538760503136
20
14.739404312769565
30
0
10
28.876025517781603
20
13.978731266657496
30
0
10
27.692019542058318
20
12.83771160443623
30
0
10
26.732906977335627
20
11.812449169158914
30
0
0
SPLINE
5
118
100
AcDbEntity
8
0
100
AcDbSpline
70
4
71
3
72
8
73
4
74
0
42
0.000000001
43
0.0000000001
44
0.0000000001
40
0
40
0
40
0
40
0
40
1
40
1
40
1
40
1
41
1
41
1
41
1
41
1
10
-3.006274223327623
20
30.300207567214947
30
0
10
-2.9335134029388277
20
30.670622618993114
30
0
10
-2.9632778167724494
20
31.001351785659772
30
0
10
-2.9831207593281972
20
31.189869832992546
30
0
0
LINE
5
119
100
AcDbEntity
8
0
100
AcDbLine
10
-4.6070122718810964
20
42.110543282826725
30
0
11
-5.1262594858805262
21
41.809578529993686
31
0
0
SPLINE
5
120
100
AcDbEntity
8
0
100
AcDbSpline
70
4
71
3
72
8
73
4
74
0
42
0.000000001
43
0.0000000001
44
0.0000000001
40
0
40
0
40
0
40
0
40
1
40
1
40
1
40
1
41
1
41
1
41
1
41
1
10
17.793298006057746
20
28.315832567214947
30
0
10
17.770144542058329
20
28.428279272715233
30
0
10
17.723847707112647
20
28.659793726603169
30
0
10
17.59155805905662
20
28.924373022715244
30
0
0
SPLINE
5
121
100
AcDbEntity
8
0
100
AcDbSpline
70
4
71
3
72
8
73
4
74
0
42
0.000000001
43
0.0000000001
44
0.0000000001
40
0
40
0
40
0
40
0
40
1
40
1
40
1
40
1
41
1
41
1
41
1
41
1
10
-16.099860906600941
20
27.055745156606026
30
0
10
-17.280566453933716
20
25.812200260162328
30
0
10
-18.299207846323643
20
24.47275117238361
30
0
10
-19.294705867767327
20
23.169677448272697
30
0
0
SPLINE
5
122
100
AcDbEntity
8
0
100
AcDbSpline
70
4
71
3
72
8
73
4
74
0
42
0.000000001
43
0.0000000001
44
0.0000000001
40
0
40
0
40
0
40
0
40
1
40
1
40
1
40
1
41
1
41
1
41
1
41
1
10
-29.200048446655277
20
15.655510377883886
30
0
10
-29.259577274322503
20
16.915587695439637
30
0
10
-29.127287626266476
20
18.188897005716953
30
0
10
-28.806479930877671
20
19.442363373438504
30
0
0
SPLINE
5
123
100
AcDbEntity
8
0
100
AcDbSpline
70
4
71
3
72
8
73
4
74
0
42
0.000000001
43
0.0000000001
44
0.0000000001
40
0
40
0
40
0
40
0
40
1
40
1
40
1
40
1
41
1
41
1
41
1
41
1
10
-25.664552847544346
20
11.97449313799539
30
0
10
-26.04488937060038
20
12.42759048144022
30
0
10
-26.4616113503774
20
12.870766353607156
30
0
10
-26.924630165100083
20
13.287488333384179
30
0
0
SPLINE
5
124
100
AcDbEntity
8
0
100
AcDbSpline
70
4
71
3
72
8
73
4
74
0
42
0.000000001
43
0.0000000001
44
0.0000000001
40
0
40
0
40
0
40
0
40
1
40
1
40
1
40
1
41
1
41
1
41
1
41
1
10
2.6095106601715301
20
29.53622399965921
30
0
10
1.7826877435048605
20
28.778851381937653
30
0
10
1.0550795396169188
20
27.915653101603176
30
0
10
0.35724584261576986
20
26.857315731048569
30
0
0
SPLINE
5
125
100
AcDbEntity
8
0
100
AcDbSpline
70
4
71
3
72
8
73
4
74
0
42
0.000000001
43
0.0000000001
44
0.0000000001
40
0
40
0
40
0
40
0
40
1
40
1
40
1
40
1
41
1
41
1
41
1
41
1
10
-26.924630165100083
20
13.287488333384179
30
0
10
-27.629084904988602
20
13.922492774327576
30
0
10
-28.399684468905114
20
14.441729895273836
30
0
10
-29.209969917933133
20
14.841919453938779
30
0
0
SPLINE
5
126
100
AcDbEntity
8
0
100
AcDbSpline
70
4
71
3
72
8
73
4
74
0
42
0.000000001
43
0.0000000001
44
0.0000000001
40
0
40
0
40
0
40
0
40
1
40
1
40
1
40
1
41
1
41
1
41
1
41
1
10
4.4748280048370592
20
36.676665496826153
30
0
10
5.0403720537821473
20
34.765051317214969
30
0
10
5.169361273447679
20
33.32637742360432
30
0
10
4.8948504130045789
20
32.016692749659214
30
0
0
SPLINE
5
127
100
AcDbEntity
8
0
100
AcDbSpline
70
4
71
3
72
8
73
4
74
0
42
0.000000001
43
0.0000000001
44
0.0000000001
40
0
40
0
40
0
40
0
40
1
40
1
40
1
40
1
41
1
41
1
41
1
41
1
10
-1.8917185465494724
20
38.389840157826725
30
0
10
-1.7759613196055031
20
38.790019623438511
30
0
10
-1.6602040926615231
20
39.190209182103459
30
0
10
-1.5411464373270589
20
39.600310118993114
30
0
0
SPLINE
5
128
100
AcDbEntity
8
0
100
AcDbSpline
70
4
71
3
72
8
73
4
74
0
42
0.000000001
43
0.0000000001
44
0.0000000001
40
0
40
0
40
0
40
0
40
1
40
1
40
1
40
1
41
1
41
1
41
1
41
1
10
-5.1262594858805262
20
41.809578529993686
30
0
10
-6.7832158406575438
20
40.853766393661473
30
0
10
-8.4963905016581158
20
39.864889415105175
30
0
10
-9.8821465174356966
20
38.168247175216663
30
0
0
SPLINE
5
129
100
AcDbEntity
8
0
100
AcDbSpline
70
4
71
3
72
8
73
4
74
0
42
0.000000001
43
0.0000000001
44
0.0000000001
40
0
40
0
40
0
40
0
40
1
40
1
40
1
40
1
41
1
41
1
41
1
41
1
10
24.758453448613501
20
16.730390262603745
30
0
10
22.803842862447109
20
20.236121447881054
30
0
10
20.458974281946837
20
23.411123466491681
30
0
10
18.375384569168105
20
26.090021642049145
30
0
0
SPLINE
5
130
100
AcDbEntity
8
0
100
AcDbSpline
70
4
71
3
72
8
73
4
74
0
42
0.000000001
43
0.0000000001
44
0.0000000001
40
0
40
0
40
0
40
0
40
1
40
1
40
1
40
1
41
1
41
1
41
1
41
1
10
4.0382731755574577
20
41.773203166325885
30
0
10
3.7339979012807367
20
41.468927892049159
30
0
10
3.0890820821126352
20
40.625572554270413
30
0
10
3.6347831885019977
20
39.322498830159496
30
0
0
SPLINE
5
131
100
AcDbEntity
8
0
100
AcDbSpline
70
4
71
3
72
8
73
4
74
0
42
0.000000001
43
0.0000000001
44
0.0000000001
40
0
40
0
40
0
40
0
40
1
40
1
40
1
40
1
41
1
41
1
41
1
41
1
10
-1.0318206946055033
20
28.550647449493404
30
0
10
-1.6403611501057869
20
29.248481146494548
30
0
10
-2.3051300048827961
20
29.833878231048573
30
0
10
-3.006274223327623
20
30.300207567214947
30
0
0
SPLINE
5
132
100
AcDbEntity
8
0
100
AcDbSpline
70
4
71
3
72
8
73
4
74
0
42
0.000000001
43
0.0000000001
44
0.0000000001
40
0
40
0
40
0
40
0
40
1
40
1
40
1
40
1
41
1
41
1
41
1
41
1
10
3.9820447762807332
20
38.237707567214954
30
0
10
4.1573308308919454
20
37.701927932103466
30
0
10
4.3226954142252616
20
37.192602189381908
30
0
10
4.4748280048370592
20
36.676665496826153
30
0
0
SPLINE
5
133
100
AcDbEntity
8
0
100
AcDbSpline
70
4
71
3
72
8
73
4
74
0
42
0.000000001
43
0.0000000001
44
0.0000000001
40
0
40
0
40
0
40
0
40
1
40
1
40
1
40
1
41
1
41
1
41
1
41
1
10
12.905121326446555
20
37.361277294158924
30
0
10
11.21178960800172
20
39.927738857269283
30
0
10
9.0918144385020092
20
41.508623870213803
30
0
10
6.4228276411692473
20
42.193225574493383
30
0
0
SPLINE
5
134
100
AcDbEntity
8
0
100
AcDbSpline
70
4
71
3
72
8
73
4
74
0
42
0.000000001
43
0.0000000001
44
0.0000000001
40
0
40
0
40
0
40
0
40
1
40
1
40
1
40
1
41
1
41
1
41
1
41
1
10
3.6347831885019977
20
39.322498830159496
30
0
10
3.7472298940022992
20
38.958694728215526
30
0
10
3.8662976423899353
20
38.598201147715237
30
0
10
3.9820447762807332
20
38.237707567214954
30
0
0
SPLINE
5
135
100
AcDbEntity
8
0
100
AcDbSpline
70
4
71
3
72
8
73
4
74
0
42
0.000000001
43
0.0000000001
44
0.0000000001
40
0
40
0
40
0
40
0
40
1
40
1
40
1
40
1
41
1
41
1
41
1
41
1
10
-1.8454217116037919
20
41.647524468104024
30
0
10
-2.2356797059376898
20
42.160150639216113
30
0
10
-2.82107679049173
20
42.451193920771274
30
0
10
-3.4560711383819465
20
42.451193920771274
30
0
0
SPLINE
5
136
100
AcDbEntity
8
0
100
AcDbSpline
70
4
71
3
72
8
73
4
74
0
42
0.000000001
43
0.0000000001
44
0.0000000001
40
0
40
0
40
0
40
0
40
1
40
1
40
1
40
1
41
1
41
1
41
1
41
1
10
-2.5597878297169885
20
36.044971577326443
30
0
10
-2.3448158899942917
20
36.828798087437931
30
0
10
-2.119922478993721
20
37.609324169158917
30
0
10
-1.8917185465494724
20
38.389840157826725
30
0
0
SPLINE
5
137
100
AcDbEntity
8
0
100
AcDbSpline
70
4
71
3
72
8
73
4
74
0
42
0.000000001
43
0.0000000001
44
0.0000000001
40
0
40
0
40
0
40
0
40
1
40
1
40
1
40
1
41
1
41
1
41
1
41
1
10
-9.8821465174356966
20
38.168247175216663
30
0
10
-12.236936569213855
20
35.284288438161212
30
0
10
-14.055946985880521
20
32.158893775939923
30
0
10
-15.815428574879958
20
29.136034440994241
30
0
0
SPLINE
5
138
100
AcDbEntity
8
0
100
AcDbSpline
70
4
71
3
72
8
73
4
74
0
42
0.000000001
43
0.0000000001
44
0.0000000001
40
0
40
0
40
0
40
0
40
1
40
1
40
1
40
1
41
1
41
1
41
1
41
1
10
17.59155805905662
20
28.924373022715244
30
0
10
16.225644985834776
20
31.669421068827312
30
0
10
14.740674257278458
20
34.579843791325878
30
0
10
12.905121326446555
20
37.361277294158924
30
0
0
SPLINE
5
139
100
AcDbEntity
8
0
100
AcDbSpline
70
4
71
3
72
8
73
4
74
0
42
0.000000001
43
0.0000000001
44
0.0000000001
40
0
40
0
40
0
40
0
40
1
40
1
40
1
40
1
41
1
41
1
41
1
41
1
10
0.35724584261576986
20
26.857315731048569
30
0
10
-0.056165615717553852
20
27.396405887603748
30
0
10
-0.51588400204975127
20
27.958639415105175
30
0
10
-1.0318206946055033
20
28.550647449493404
30
0
0
SPLINE
5
140
100
AcDbEntity
8
0
100
AcDbSpline
70
4
71
3
72
8
73
4
74
0
42
0.000000001
43
0.0000000001
44
0.0000000001
40
0
40
0
40
0
40
0
40
1
40
1
40
1
40
1
41
1
41
1
41
1
41
1
10
5.5166329542795856
20
42.388354571660365
30
0
10
4.9610103766123492
20
42.388354571660365
30
0
10
4.4351522127787337
20
42.170072110493976
30
0
10
4.0382731755574577
20
41.773203166325885
30
0
0
SPLINE
5
141
100
AcDbEntity
8
0
100
AcDbSpline
70
4
71
3
72
8
73
4
74
0
42
0.000000001
43
0.0000000001
44
0.0000000001
40
0
40
0
40
0
40
0
40
1
40
1
40
1
40
1
41
1
41
1
41
1
41
1
10
4.8948504130045789
20
32.016692749659214
30
0
10
4.8254001140594607
20
31.692574532826722
30
0
10
4.8088575998942087
20
31.388309351603173
30
0
10
4.8353215853373355
20
31.103877019882201
30
0
0
SPLINE
5
142
100
AcDbEntity
8
0
100
AcDbSpline
70
4
71
3
72
8
73
4
74
0
42
0.000000001
43
0.0000000001
44
0.0000000001
40
0
40
0
40
0
40
0
40
1
40
1
40
1
40
1
41
1
41
1
41
1
41
1
10
-2.9831207593281972
20
31.189869832992546
30
0
10
-3.1484853426615245
20
32.774065367380771
30
0
10
-3.006274223327623
20
34.407868258158359
30
0
10
-2.5597878297169885
20
36.044971577326443
30
0
0
SPLINE
5
143
100
AcDbEntity
8
0
100
AcDbSpline
70
4
71
3
72
8
73
4
74
0
42
0.000000001
43
0.0000000001
44
0.0000000001
40
0
40
0
40
0
40
0
40
1
40
1
40
1
40
1
41
1
41
1
41
1
41
1
10
-3.4560711383819465
20
42.451193920771274
30
0
10
-4.0348471800486072
20
42.451193920771274
30
0
10
-4.4449481169382645
20
42.20645756721494
30
0
10
-4.6070122718810964
20
42.110543282826725
30
0
0
SPLINE
5
144
100
AcDbEntity
8
0
100
AcDbSpline
70
4
71
3
72
8
73
4
74
0
42
0.000000001
43
0.0000000001
44
0.0000000001
40
0
40
0
40
0
40
0
40
1
40
1
40
1
40
1
41
1
41
1
41
1
41
1
10
-20.597779591878243
20
21.482956679662042
30
0
10
-22.062907377878819
20
19.647413841883328
30
0
10
-23.8753068447113
20
17.153713099161756
30
0
10
-24.927023172378529
20
14.157307656606035
30
0
0
SPLINE
5
145
100
AcDbEntity
8
0
100
AcDbSpline
70
4
71
3
72
8
73
4
74
0
42
0.000000001
43
0.0000000001
44
0.0000000001
40
0
40
0
40
0
40
0
40
1
40
1
40
1
40
1
41
1
41
1
41
1
41
1
10
-38.658854166666671
20
13.046082687377925
30
0
10
-36.380130410194397
20
18.142620356877636
30
0
10
-33.37710897127787
20
22.657071463266995
30
0
10
-28.813045461972546
20
26.004049015045162
30
0
0
SPLINE
5
146
100
AcDbEntity
8
0
100
AcDbSpline
70
4
71
3
72
8
73
4
74
0
42
0.000000001
43
0.0000000001
44
0.0000000001
40
0
40
0
40
0
40
0
40
1
40
1
40
1
40
1
41
1
41
1
41
1
41
1
10
-31.085158268610634
20
15.579459222157778
30
0
10
-31.045472383499146
20
14.762557776768981
30
0
10
-31.055393854777019
20
14.769168726603166
30
0
10
-31.905365188916512
20
14.755946826934794
30
0
0
SPLINE
5
147
100
AcDbEntity
8
0
100
AcDbSpline
70
4
71
3
72
8
73
4
74
0
42
0.000000001
43
0.0000000001
44
0.0000000001
40
0
40
0
40
0
40
0
40
1
40
1
40
1
40
1
41
1
41
1
41
1
41
1
10
18.05455164114634
20
13.796834262212098
30
0
10
21.024498144785575
20
8.8888146400451422
30
0
10
19.387389779090888
20
2.7008747577667047
30
0
10
16.698560039202381
20
-0.60972743034364063
30
0
0
LINE
5
148
100
AcDbEntity
8
0
100
AcDbLine
10
-27.159455140431721
20
26.900312137603759
30
0
11
-28.194639046986893
21
28.755697917938225
31
0
0
SPLINE
5
149
100
AcDbEntity
8
0
100
AcDbSpline
70
4
71
3
72
8
73
4
74
0
42
0.000000001
43
0.0000000001
44
0.0000000001
40
0
40
0
40
0
40
0
40
1
40
1
40
1
40
1
41
1
41
1
41
1
41
1
10
-31.905365188916512
20
14.755946826934794
30
0
10
-32.818175872166947
20
14.742714834213235
30
0
10
-33.730991601943963
20
14.80225375493367
30
0
10
-34.640496810277305
20
14.643500121434517
30
0
0
SPLINE
5
150
100
AcDbEntity
8
0
100
AcDbSpline
70
4
71
3
72
8
73
4
74
0
42
0.000000001
43
0.0000000001
44
0.0000000001
40
0
40
0
40
0
40
0
40
1
40
1
40
1
40
1
41
1
41
1
41
1
41
1
10
28.591603279113798
20
24.155274184544862
30
0
10
28.77681080500286
20
23.682333898544311
30
0
10
28.965328852335638
20
23.209393612543721
30
0
10
29.153846899668384
20
22.736443233489979
30
0
0
LINE
5
151
100
AcDbEntity
8
0
100
AcDbLine
10
42.039062500000014
20
10.122438065210961
30
0
11
42.184584140777595
21
11.078250201543156
31
0
0
LINE
5
152
100
AcDbEntity
8
0
100
AcDbLine
10
41.91999475161235
20
12.652514171600338
30
0
11
41.546269178390503
21
13.56201937993367
31
0
0
SPLINE
5
153
100
AcDbEntity
8
0
100
AcDbSpline
70
4
71
3
72
8
73
4
74
0
42
0.000000001
43
0.0000000001
44
0.0000000001
40
0
40
0
40
0
40
0
40
1
40
1
40
1
40
1
41
1
41
1
41
1
41
1
10
13.731903870900492
20
-59.22154065767927
30
0
10
16.205761671066298
20
-59.664726622899394
30
0
10
18.415030082066874
20
-59.879688469568904
30
0
10
20.485397895177215
20
-59.879688469568904
30
0
0
SPLINE
5
154
100
AcDbEntity
8
0
100
AcDbSpline
70
4
71
3
72
8
73
4
74
0
42
0.000000001
43
0.0000000001
44
0.0000000001
40
0
40
0
40
0
40
0
40
1
40
1
40
1
40
1
41
1
41
1
41
1
41
1
10
-38.066851178805038
20
13.270976098378483
30
0
10
-38.228905240694687
20
13.168450864156078
30
0
10
-38.35458393891652
20
12.97001134554543
30
0
10
-38.658854166666671
20
13.046082687377925
30
0
0
SPLINE
5
155
100
AcDbEntity
8
0
100
AcDbSpline
70
4
71
3
72
8
73
4
74
0
42
0.000000001
43
0.0000000001
44
0.0000000001
40
0
40
0
40
0
40
0
40
1
40
1
40
1
40
1
41
1
41
1
41
1
41
1
10
5.5595990816752137
20
16.644417635599762
30
0
10
5.5595990816752137
20
17.964023780822735
30
0
10
5.5529881318410288
20
19.283640019098904
30
0
10
5.5629096031189036
20
20.603246164321874
30
0
0
SPLINE
5
156
100
AcDbEntity
8
0
100
AcDbSpline
70
4
71
3
72
8
73
4
74
0
42
0.000000001
43
0.0000000001
44
0.0000000001
40
0
40
0
40
0
40
0
40
1
40
1
40
1
40
1
41
1
41
1
41
1
41
1
10
-29.907813707987469
20
27.498931121826153
30
0
10
-34.293280641237899
20
24.280932696660344
30
0
10
-37.610498825709016
20
19.92854574521381
30
0
10
-40.355546871821076
20
13.796824169158928
30
0
0
SPLINE
5
157
100
AcDbEntity
8
0
100
AcDbSpline
70
4
71
3
72
8
73
4
74
0
42
0.000000001
43
0.0000000001
44
0.0000000001
40
0
40
0
40
0
40
0
40
1
40
1
40
1
40
1
41
1
41
1
41
1
41
1
10
-41.671852588653557
20
-20.575855700174998
30
0
10
-39.753622412681572
20
-22.8049670537313
30
0
10
-37.775863409042366
20
-24.220487483342509
30
0
10
-35.573205947875977
20
-24.918331273396824
30
0
0
SPLINE
5
158
100
AcDbEntity
8
0
100
AcDbSpline
70
4
71
3
72
8
73
4
74
0
42
0.000000001
43
0.0000000001
44
0.0000000001
40
0
40
0
40
0
40
0
40
1
40
1
40
1
40
1
41
1
41
1
41
1
41
1
10
-39.627943714459747
20
-37.919283914566073
30
0
10
-39.846226175626114
20
-41.983938105901103
30
0
10
-39.399739782015473
20
-45.261475451787341
30
0
10
-38.222344756126397
20
-48.234727430343654
30
0
0
LINE
5
159
100
AcDbEntity
8
0
100
AcDbLine
10
-41.274973551432282
20
11.739688348770132
30
0
11
-40.851640621821076
21
11.63716311454772
31
0
0
SPLINE
5
160
100
AcDbEntity
8
0
100
AcDbSpline
70
4
71
3
72
8
73
4
74
0
42
0.000000001
43
0.0000000001
44
0.0000000001
40
0
40
0
40
0
40
0
40
1
40
1
40
1
40
1
41
1
41
1
41
1
41
1
10
-45.643908063570663
20
-15.743907419840507
30
0
10
-44.281305511792482
20
-17.519921429951999
30
0
10
-42.869090557098382
20
-19.183488734563213
30
0
10
-41.671852588653557
20
-20.575855700174998
30
0
0
SPLINE
5
161
100
AcDbEntity
8
0
100
AcDbSpline
70
4
71
3
72
8
73
4
74
0
42
0.000000001
43
0.0000000001
44
0.0000000001
40
0
40
0
40
0
40
0
40
1
40
1
40
1
40
1
41
1
41
1
41
1
41
1
10
-2.7615580558776798
20
-56.271442143122385
30
0
10
-0.57874353726703687
20
-56.271442143122385
30
0
10
1.7330501079559335
20
-56.529420582453426
30
0
10
4.1109936237335365
20
-57.03542571067814
30
0
0
SPLINE
5
162
100
AcDbEntity
8
0
100
AcDbSpline
70
4
71
3
72
8
73
4
74
0
42
0.000000001
43
0.0000000001
44
0.0000000001
40
0
40
0
40
0
40
0
40
1
40
1
40
1
40
1
41
1
41
1
41
1
41
1
10
4.1109936237335365
20
-57.03542571067814
30
0
10
5.3876033624013475
20
-57.306626049677561
30
0
10
6.6906770865122622
20
-57.627423652013178
30
0
10
7.9540649255116804
20
-57.934999354680414
30
0
0
SPLINE
5
163
100
AcDbEntity
8
0
100
AcDbSpline
70
4
71
3
72
8
73
4
74
0
42
0.000000001
43
0.0000000001
44
0.0000000001
40
0
40
0
40
0
40
0
40
1
40
1
40
1
40
1
41
1
41
1
41
1
41
1
10
20.485397895177215
20
-59.879688469568904
30
0
10
22.307718833287581
20
-59.879688469568904
30
0
10
24.007661501566577
20
-59.717634407679284
30
0
10
25.681150277455668
20
-59.383594719568919
30
0
0
SPLINE
5
164
100
AcDbEntity
8
0
100
AcDbSpline
70
4
71
3
72
8
73
4
74
0
42
0.000000001
43
0.0000000001
44
0.0000000001
40
0
40
0
40
0
40
0
40
1
40
1
40
1
40
1
41
1
41
1
41
1
41
1
10
-38.222344756126397
20
-48.234727430343654
30
0
10
-36.052762230237313
20
-53.71491214434306
30
0
10
-32.282446702321373
20
-57.233875322341952
30
0
10
-27.013933499654122
20
-58.695692586898858
30
0
0
LINE
5
165
100
AcDbEntity
8
0
100
AcDbLine
10
-28.194639046986893
20
28.755697917938225
30
0
11
-29.907813707987469
21
27.498931121826153
31
0
0
SPLINE
5
166
100
AcDbEntity
8
0
100
AcDbSpline
70
4
71
3
72
8
73
4
74
0
42
0.000000001
43
0.0000000001
44
0.0000000001
40
0
40
0
40
0
40
0
40
1
40
1
40
1
40
1
41
1
41
1
41
1
41
1
10
-28.813045461972546
20
26.004049015045162
30
0
10
-28.670834342638649
20
25.752691618601471
30
0
10
-28.852731347084045
20
25.537719678878773
30
0
10
-28.918881217638635
20
25.322747739156078
30
0
0
SPLINE
5
167
100
AcDbEntity
8
0
100
AcDbSpline
70
4
71
3
72
8
73
4
74
0
42
0.000000001
43
0.0000000001
44
0.0000000001
40
0
40
0
40
0
40
0
40
1
40
1
40
1
40
1
41
1
41
1
41
1
41
1
10
45.06188146273297
20
-17.668733406066917
30
0
10
46.30211583773297
20
-16.124223756790194
30
0
10
47.221542517344169
20
-14.652485020955421
30
0
10
47.863157908121757
20
-13.164203770955417
30
0
0
SPLINE
5
168
100
AcDbEntity
8
0
100
AcDbSpline
70
4
71
3
72
8
73
4
74
0
42
0.000000001
43
0.0000000001
44
0.0000000001
40
0
40
0
40
0
40
0
40
1
40
1
40
1
40
1
41
1
41
1
41
1
41
1
10
-30.635366400082901
20
19.925245316823318
30
0
10
-31.002475976943977
20
18.49980341593422
30
0
10
-31.157919088999421
20
17.05120805104572
30
0
10
-31.085158268610634
20
15.579459222157778
30
0
0
SPLINE
5
169
100
AcDbEntity
8
0
100
AcDbSpline
70
4
71
3
72
8
73
4
74
0
42
0.000000001
43
0.0000000001
44
0.0000000001
40
0
40
0
40
0
40
0
40
1
40
1
40
1
40
1
41
1
41
1
41
1
41
1
10
13.189523379007987
20
-2.8586817264557123
30
0
10
10.666058222452804
20
-3.2754037062327139
30
0
10
8.4005614121755023
20
-2.6172458012899016
30
0
10
6.3698895772298281
20
-1.1124321301778424
30
0
0
SPLINE
5
170
100
AcDbEntity
8
0
100
AcDbSpline
70
4
71
3
72
8
73
4
74
0
42
0.000000001
43
0.0000000001
44
0.0000000001
40
0
40
0
40
0
40
0
40
1
40
1
40
1
40
1
41
1
41
1
41
1
41
1
10
6.8362189133962055
20
23.867541424433373
30
0
10
7.5737485885620099
20
24.651367934544872
30
0
10
8.1624461015065588
20
24.760514211654659
30
0
10
9.1215586662292552
20
24.287563832600888
30
0
0
SPLINE
5
171
100
AcDbEntity
8
0
100
AcDbSpline
70
4
71
3
72
8
73
4
74
0
42
0.000000001
43
0.0000000001
44
0.0000000001
40
0
40
0
40
0
40
0
40
1
40
1
40
1
40
1
41
1
41
1
41
1
41
1
10
40.517655849456801
20
-38.603895711898815
30
0
10
40.30598433812461
20
-34.499545542399112
30
0
10
39.24434653917951
20
-30.686238654454563
30
0
10
37.359196345011398
20
-27.269810803731296
30
0
0
SPLINE
5
172
100
AcDbEntity
8
0
100
AcDbSpline
70
4
71
3
72
8
73
4
74
0
42
0.000000001
43
0.0000000001
44
0.0000000001
40
0
40
0
40
0
40
0
40
1
40
1
40
1
40
1
41
1
41
1
41
1
41
1
10
-34.640496810277305
20
14.643500121434517
30
0
10
-35.880731185277298
20
14.425217660268142
30
0
10
-37.0118243296941
20
13.955587895711254
30
0
10
-38.066851178805038
20
13.270976098378483
30
0
0
SPLINE
5
173
100
AcDbEntity
8
0
100
AcDbSpline
70
4
71
3
72
8
73
4
74
0
42
0.000000001
43
0.0000000001
44
0.0000000001
40
0
40
0
40
0
40
0
40
1
40
1
40
1
40
1
41
1
41
1
41
1
41
1
10
-27.77460654576619
20
22.749655040105175
30
0
10
-27.559634606043495
20
23.381348959604882
30
0
10
-27.338041623433419
20
24.036196343104027
30
0
10
-27.12968568007151
20
24.697654676437363
30
0
0
LINE
5
174
100
AcDbEntity
8
0
100
AcDbLine
10
-27.12968568007151
20
24.697654676437363
30
0
11
-27.126380205154419
21
24.707576147715237
31
0
0
SPLINE
5
175
100
AcDbEntity
8
0
100
AcDbSpline
70
4
71
3
72
8
73
4
74
0
42
0.000000001
43
0.0000000001
44
0.0000000001
40
0
40
0
40
0
40
0
40
1
40
1
40
1
40
1
41
1
41
1
41
1
41
1
10
16.698560039202381
20
-0.60972743034364063
30
0
10
15.775827884674074
20
-1.7441260496775497
30
0
10
14.67119367917379
20
-2.6139453728993822
30
0
10
13.189523379007987
20
-2.8586817264557123
30
0
0
SPLINE
5
176
100
AcDbEntity
8
0
100
AcDbSpline
70
4
71
3
72
8
73
4
74
0
42
0.000000001
43
0.0000000001
44
0.0000000001
40
0
40
0
40
0
40
0
40
1
40
1
40
1
40
1
41
1
41
1
41
1
41
1
10
-40.851640621821076
20
11.637163114547722
30
0
10
-41.440338134765618
20
10.879790496826146
30
0
10
-41.962890823682145
20
10.033124637603752
30
0
10
-42.412682692209877
20
9.0938550154368016
30
0
0
SPLINE
5
177
100
AcDbEntity
8
0
100
AcDbSpline
70
4
71
3
72
8
73
4
74
0
42
0.000000001
43
0.0000000001
44
0.0000000001
40
0
40
0
40
0
40
0
40
1
40
1
40
1
40
1
41
1
41
1
41
1
41
1
10
25.681150277455668
20
-59.383594719568919
30
0
10
31.822793324788421
20
-58.159892765680965
30
0
10
36.158647855122894
20
-54.859222141901682
30
0
10
38.576277256011991
20
-49.570865996678712
30
0
0
SPLINE
5
178
100
AcDbEntity
8
0
100
AcDbSpline
70
4
71
3
72
8
73
4
74
0
42
0.000000001
43
0.0000000001
44
0.0000000001
40
0
40
0
40
0
40
0
40
1
40
1
40
1
40
1
41
1
41
1
41
1
41
1
10
6.3698895772298281
20
-1.1124321301778424
30
0
10
5.5397561391194685
20
-0.4972807248433625
30
0
10
5.0105975468953456
20
0.33285271326699617
30
0
10
4.8154584566752145
20
1.3548046271006042
30
0
0
SPLINE
5
179
100
AcDbEntity
8
0
100
AcDbSpline
70
4
71
3
72
8
73
4
74
0
42
0.000000001
43
0.0000000001
44
0.0000000001
40
0
40
0
40
0
40
0
40
1
40
1
40
1
40
1
41
1
41
1
41
1
41
1
10
-27.013933499654122
20
-58.695692586898858
30
0
10
-24.943570733070366
20
-59.271158107121806
30
0
10
-22.830211559931428
20
-59.558890867233302
30
0
10
-20.726773858070359
20
-59.558890867233302
30
0
0
SPLINE
5
180
100
AcDbEntity
8
0
100
AcDbSpline
70
4
71
3
72
8
73
4
74
0
42
0.000000001
43
0.0000000001
44
0.0000000001
40
0
40
0
40
0
40
0
40
1
40
1
40
1
40
1
41
1
41
1
41
1
41
1
10
10.56684350967407
20
23.282144339879345
30
0
10
13.457413196563728
20
20.431260538101181
30
0
10
15.954424460728964
20
17.266179990768428
30
0
10
18.05455164114634
20
13.796834262212098
30
0
0
SPLINE
5
181
100
AcDbEntity
8
0
100
AcDbSpline
70
4
71
3
72
8
73
4
74
0
42
0.000000001
43
0.0000000001
44
0.0000000001
40
0
40
0
40
0
40
0
40
1
40
1
40
1
40
1
41
1
41
1
41
1
41
1
10
-28.918881217638635
20
25.322747739156078
30
0
10
-29.481119791666668
20
23.520269743601464
30
0
10
-30.165731588999421
20
21.757487726211529
30
0
10
-30.635366400082901
20
19.925245316823318
30
0
0
SPLINE
5
182
100
AcDbEntity
8
0
100
AcDbSpline
70
4
71
3
72
8
73
4
74
0
42
0.000000001
43
0.0000000001
44
0.0000000001
40
0
40
0
40
0
40
0
40
1
40
1
40
1
40
1
41
1
41
1
41
1
41
1
10
-35.639350771903992
20
-25.027467457453433
30
0
10
-36.251201748847954
20
-26.075883356730163
30
0
10
-36.886201143264771
20
-27.163975048065204
30
0
10
-37.425286253293343
20
-28.32152713139855
30
0
0
SPLINE
5
183
100
AcDbEntity
8
0
100
AcDbSpline
70
4
71
3
72
8
73
4
74
0
42
0.000000001
43
0.0000000001
44
0.0000000001
40
0
40
0
40
0
40
0
40
1
40
1
40
1
40
1
41
1
41
1
41
1
41
1
10
7.9540649255116804
20
-57.934999354680414
30
0
10
9.8293037414550852
20
-58.394717741012592
30
0
10
11.767371813456226
20
-58.870968548456858
30
0
10
13.731903870900492
20
-59.22154065767927
30
0
0
SPLINE
5
184
100
AcDbEntity
8
0
100
AcDbSpline
70
4
71
3
72
8
73
4
74
0
42
0.000000001
43
0.0000000001
44
0.0000000001
40
0
40
0
40
0
40
0
40
1
40
1
40
1
40
1
41
1
41
1
41
1
41
1
10
4.8154584566752145
20
1.3548046271006042
30
0
10
4.554179588953656
20
2.7273286501566352
30
0
10
4.6137185096740811
20
4.1097741444905411
30
0
10
4.7724620501200405
20
5.4789977391560774
30
0
0
SPLINE
5
185
100
AcDbEntity
8
0
100
AcDbSpline
70
4
71
3
72
8
73
4
74
0
42
0.000000001
43
0.0000000001
44
0.0000000001
40
0
40
0
40
0
40
0
40
1
40
1
40
1
40
1
41
1
41
1
41
1
41
1
10
-35.573205947875977
20
-24.918331273396824
30
0
10
-35.593048890431724
20
-24.954706637064628
30
0
10
-35.616202354431159
20
-24.991092093785625
30
0
10
-35.639350771903992
20
-25.027467457453433
30
0
0
SPLINE
5
186
100
AcDbEntity
8
0
100
AcDbSpline
70
4
71
3
72
8
73
4
74
0
42
0.000000001
43
0.0000000001
44
0.0000000001
40
0
40
0
40
0
40
0
40
1
40
1
40
1
40
1
41
1
41
1
41
1
41
1
10
9.1215586662292552
20
24.287563832600888
30
0
10
9.6540277798970546
20
24.022984536488835
30
0
10
10.146821101506553
20
23.695555798212673
30
0
10
10.56684350967407
20
23.282144339879345
30
0
0
SPLINE
5
187
100
AcDbEntity
8
0
100
AcDbSpline
70
4
71
3
72
8
73
4
74
0
42
0.000000001
43
0.0000000001
44
0.0000000001
40
0
40
0
40
0
40
0
40
1
40
1
40
1
40
1
41
1
41
1
41
1
41
1
10
5.5629096031189036
20
20.603246164321874
30
0
10
5.5728310743967757
20
21.850091489156064
30
0
10
5.9730105400085476
20
22.951425266265861
30
0
10
6.8362189133962055
20
23.867541424433373
30
0
0
SPLINE
5
188
100
AcDbEntity
8
0
100
AcDbSpline
70
4
71
3
72
8
73
4
74
0
42
0.000000001
43
0.0000000001
44
0.0000000001
40
0
40
0
40
0
40
0
40
1
40
1
40
1
40
1
41
1
41
1
41
1
41
1
10
-47.929247816403702
20
-3.454010375340788
30
0
10
-49.186019659042373
20
-7.9982258955637819
30
0
10
-48.418725570042923
20
-12.132340478897108
30
0
10
-45.643908063570663
20
-15.743907419840507
30
0
0
SPLINE
5
189
100
AcDbEntity
8
0
100
AcDbSpline
70
4
71
3
72
8
73
4
74
0
42
0.000000001
43
0.0000000001
44
0.0000000001
40
0
40
0
40
0
40
0
40
1
40
1
40
1
40
1
41
1
41
1
41
1
41
1
10
-43.103905439376824
20
7.5758093516031799
30
0
10
-43.45447754859925
20
6.782061370213821
30
0
10
-43.788517236709595
20
6.0346102237701205
30
0
10
-44.175469756126404
20
5.3235445340474197
30
0
0
SPLINE
5
190
100
AcDbEntity
8
0
100
AcDbSpline
70
4
71
3
72
8
73
4
74
0
42
0.000000001
43
0.0000000001
44
0.0000000001
40
0
40
0
40
0
40
0
40
1
40
1
40
1
40
1
41
1
41
1
41
1
41
1
10
47.863157908121757
20
-13.164203770955417
30
0
10
49.285339752833082
20
-9.8106051762898883
30
0
10
49.338257630666114
20
-6.1527414004008074
30
0
10
47.995498021443701
20
-2.2832162062327299
30
0
0
SPLINE
5
191
100
AcDbEntity
8
0
100
AcDbSpline
70
4
71
3
72
8
73
4
74
0
42
0.000000001
43
0.0000000001
44
0.0000000001
40
0
40
0
40
0
40
0
40
1
40
1
40
1
40
1
41
1
41
1
41
1
41
1
10
28.971939802169814
20
27.049154392878208
30
0
10
28.657743056615203
20
26.794496568044025
30
0
10
27.698630491892501
20
25.835373910268128
30
0
10
28.568449815114359
20
24.194960069656357
30
0
0
SPLINE
5
192
100
AcDbEntity
8
0
100
AcDbSpline
70
4
71
3
72
8
73
4
74
0
42
0.000000001
43
0.0000000001
44
0.0000000001
40
0
40
0
40
0
40
0
40
1
40
1
40
1
40
1
41
1
41
1
41
1
41
1
10
-37.425286253293343
20
-28.32152713139855
30
0
10
-38.708517034848533
20
-31.073196220397975
30
0
10
-39.429504195849098
20
-34.211812782287623
30
0
10
-39.627943714459747
20
-37.919283914566073
30
0
0
LINE
5
193
100
AcDbEntity
8
0
100
AcDbLine
10
28.568449815114359
20
24.194960069656357
30
0
11
28.591603279113798
21
24.155274184544862
31
0
0
SPLINE
5
194
100
AcDbEntity
8
0
100
AcDbSpline
70
4
71
3
72
8
73
4
74
0
42
0.000000001
43
0.0000000001
44
0.0000000001
40
0
40
0
40
0
40
0
40
1
40
1
40
1
40
1
41
1
41
1
41
1
41
1
10
42.306952317555755
20
9.6858731428782097
30
0
10
42.22095950444541
20
9.8347053050994653
30
0
10
42.128355741500876
20
9.9769164244333712
30
0
10
42.039062500000014
20
10.122438065210961
30
0
0
SPLINE
5
195
100
AcDbEntity
8
0
100
AcDbSpline
70
4
71
3
72
8
73
4
74
0
42
0.000000001
43
0.0000000001
44
0.0000000001
40
0
40
0
40
0
40
0
40
1
40
1
40
1
40
1
41
1
41
1
41
1
41
1
10
36.770498832066878
20
-26.221394904454563
30
0
10
36.5819807847341
20
-25.890665737787909
30
0
10
36.40008378028871
20
-25.569858042399108
30
0
10
36.221487204233824
20
-25.249050347010311
30
0
0
SPLINE
5
196
100
AcDbEntity
8
0
100
AcDbSpline
70
4
71
3
72
8
73
4
74
0
42
0.000000001
43
0.0000000001
44
0.0000000001
40
0
40
0
40
0
40
0
40
1
40
1
40
1
40
1
41
1
41
1
41
1
41
1
10
47.995498021443701
20
-2.2832162062327299
30
0
10
46.722188711166417
20
1.3911799907684097
30
0
10
44.913099765777609
20
5.1912649790445844
30
0
10
42.306952317555755
20
9.6858731428782097
30
0
0
SPLINE
5
197
100
AcDbEntity
8
0
100
AcDbSpline
70
4
71
3
72
8
73
4
74
0
42
0.000000001
43
0.0000000001
44
0.0000000001
40
0
40
0
40
0
40
0
40
1
40
1
40
1
40
1
41
1
41
1
41
1
41
1
10
42.184584140777595
20
11.07825020154316
30
0
10
42.293720324834219
20
11.795936934153218
30
0
10
42.058905442555755
20
12.341638040542581
30
0
10
41.943148215611792
20
12.602906815210968
30
0
0
SPLINE
5
198
100
AcDbEntity
8
0
100
AcDbSpline
70
4
71
3
72
8
73
4
74
0
42
0.000000001
43
0.0000000001
44
0.0000000001
40
0
40
0
40
0
40
0
40
1
40
1
40
1
40
1
41
1
41
1
41
1
41
1
10
4.7724620501200405
20
5.4789977391560774
30
0
10
5.1924844582875611
20
9.1930899143218863
30
0
10
5.7315746148427369
20
12.89063957532246
30
0
10
5.5595990816752137
20
16.644417635599762
30
0
0
SPLINE
5
199
100
AcDbEntity
8
0
100
AcDbSpline
70
4
71
3
72
8
73
4
74
0
42
0.000000001
43
0.0000000001
44
0.0000000001
40
0
40
0
40
0
40
0
40
1
40
1
40
1
40
1
41
1
41
1
41
1
41
1
10
-42.412682692209877
20
9.0938550154368016
30
0
10
-42.657424092292771
20
8.5845292727152263
30
0
10
-42.885622978210449
20
8.071903101603171
30
0
10
-43.103905439376824
20
7.5758093516031799
30
0
0
SPLINE
5
200
100
AcDbEntity
8
0
100
AcDbSpline
70
4
71
3
72
8
73
4
74
0
42
0.000000001
43
0.0000000001
44
0.0000000001
40
0
40
0
40
0
40
0
40
1
40
1
40
1
40
1
41
1
41
1
41
1
41
1
10
39.657768090566009
20
-23.353968588511176
30
0
10
41.714903910954803
20
-21.746629683176689
30
0
10
43.322242816289275
20
-19.828394460678123
30
0
10
45.06188146273297
20
-17.668733406066917
30
0
0
SPLINE
5
201
100
AcDbEntity
8
0
100
AcDbSpline
70
4
71
3
72
8
73
4
74
0
42
0.000000001
43
0.0000000001
44
0.0000000001
40
0
40
0
40
0
40
0
40
1
40
1
40
1
40
1
41
1
41
1
41
1
41
1
10
-27.126380205154419
20
24.707576147715237
30
0
10
-26.775808095931993
20
25.494713179270406
30
0
10
-26.789035042126965
20
26.232232761383049
30
0
10
-27.159455140431717
20
26.900312137603759
30
0
0
SPLINE
5
202
100
AcDbEntity
8
0
100
AcDbSpline
70
4
71
3
72
8
73
4
74
0
42
0.000000001
43
0.0000000001
44
0.0000000001
40
0
40
0
40
0
40
0
40
1
40
1
40
1
40
1
41
1
41
1
41
1
41
1
10
-12.035206715265902
20
-57.931709019343089
30
0
10
-9.0553336938222113
20
-56.813842821121234
30
0
10
-6.0192423661549777
20
-56.271442143122385
30
0
10
-2.7615580558776798
20
-56.271442143122385
30
0
0
SPLINE
5
203
100
AcDbEntity
8
0
100
AcDbSpline
70
4
71
3
72
8
73
4
74
0
42
0.000000001
43
0.0000000001
44
0.0000000001
40
0
40
0
40
0
40
0
40
1
40
1
40
1
40
1
41
1
41
1
41
1
41
1
10
38.576277256011991
20
-49.570865996678712
30
0
10
40.091012398401929
20
-46.256953287124659
30
0
10
40.726016839345327
20
-42.668549903233881
30
0
10
40.517655849456801
20
-38.603895711898815
30
0
0
SPLINE
5
204
100
AcDbEntity
8
0
100
AcDbSpline
70
4
71
3
72
8
73
4
74
0
42
0.000000001
43
0.0000000001
44
0.0000000001
40
0
40
0
40
0
40
0
40
1
40
1
40
1
40
1
41
1
41
1
41
1
41
1
10
-44.175469756126404
20
5.3235445340474197
30
0
10
-45.425625602404274
20
3.0382047812143709
30
0
10
-46.980051676432296
20
-0.021040010452288982
30
0
10
-47.929247816403702
20
-3.454010375340788
30
0
0
LINE
5
205
100
AcDbEntity
8
0
100
AcDbLine
10
-40.355546871821076
20
13.796824169158928
30
0
11
-41.274973551432282
21
11.739688348770132
31
0
0
SPLINE
5
206
100
AcDbEntity
8
0
100
AcDbSpline
70
4
71
3
72
8
73
4
74
0
42
0.000000001
43
0.0000000001
44
0.0000000001
40
0
40
0
40
0
40
0
40
1
40
1
40
1
40
1
41
1
41
1
41
1
41
1
10
37.359196345011398
20
-27.269810803731296
30
0
10
37.16737786928816
20
-26.919238694508895
30
0
10
36.968938350677504
20
-26.571977106730159
30
0
10
36.770498832066878
20
-26.221394904454563
30
0
0
SPLINE
5
207
100
AcDbEntity
8
0
100
AcDbSpline
70
4
71
3
72
8
73
4
74
0
42
0.000000001
43
0.0000000001
44
0.0000000001
40
0
40
0
40
0
40
0
40
1
40
1
40
1
40
1
41
1
41
1
41
1
41
1
10
36.221487204233824
20
-25.249050347010311
30
0
10
37.38234980901084
20
-24.872014252344798
30
0
10
38.520058949788435
20
-24.243630854288757
30
0
10
39.657768090566009
20
-23.353968588511176
30
0
0
SPLINE
5
208
100
AcDbEntity
8
0
100
AcDbSpline
70
4
71
3
72
8
73
4
74
0
42
0.000000001
43
0.0000000001
44
0.0000000001
40
0
40
0
40
0
40
0
40
1
40
1
40
1
40
1
41
1
41
1
41
1
41
1
10
-20.726773858070359
20
-59.558890867233302
30
0
10
-17.836199124654129
20
-59.558890867233302
30
0
10
-14.912554502487176
20
-59.013179667790766
30
0
10
-12.035206715265902
20
-57.931709019343089
30
0
0
SPLINE
5
209
100
AcDbEntity
8
0
100
AcDbSpline
70
4
71
3
72
8
73
4
74
0
42
0.000000001
43
0.0000000001
44
0.0000000001
40
0
40
0
40
0
40
0
40
1
40
1
40
1
40
1
41
1
41
1
41
1
41
1
10
3.8696283499399886
20
28.160399548212673
30
0
10
4.9577301343282176
20
29.159197998046874
30
0
10
6.1648895740509113
20
29.863652737935368
30
0
10
7.6697032451629701
20
30.048860263824455
30
0
0
SPLINE
5
210
100
AcDbEntity
8
0
100
AcDbSpline
70
4
71
3
72
8
73
4
74
0
42
0.000000001
43
0.0000000001
44
0.0000000001
40
0
40
0
40
0
40
0
40
1
40
1
40
1
40
1
41
1
41
1
41
1
41
1
10
31.819523175557464
20
26.926786216100052
30
0
10
31.584708293279029
20
27.115304263432819
30
0
10
31.065461079279601
20
27.525405200322453
30
0
10
30.298166990280166
20
27.525405200322453
30
0
0
SPLINE
5
211
100
AcDbEntity
8
0
100
AcDbSpline
70
4
71
3
72
8
73
4
74
0
42
0.000000001
43
0.0000000001
44
0.0000000001
40
0
40
0
40
0
40
0
40
1
40
1
40
1
40
1
41
1
41
1
41
1
41
1
10
30.298166990280166
20
27.525405200322453
30
0
10
29.811994711558029
20
27.525405200322453
30
0
10
29.352286418279032
20
27.360040616989107
30
0
10
28.971939802169814
20
27.049154392878208
30
0
0
SPLINE
5
212
100
AcDbEntity
8
0
100
AcDbSpline
70
4
71
3
72
8
73
4
74
0
42
0.000000001
43
0.0000000001
44
0.0000000001
40
0
40
0
40
0
40
0
40
1
40
1
40
1
40
1
41
1
41
1
41
1
41
1
10
12.356139977773035
20
29.079826227823879
30
0
10
14.062703688939436
20
28.147167555491116
30
0
10
15.431917190551779
20
26.814329417546578
30
0
10
16.612622737884536
20
25.302894703547139
30
0
0
SPLINE
5
213
100
AcDbEntity
8
0
100
AcDbSpline
70
4
71
3
72
8
73
4
74
0
42
0.000000001
43
0.0000000001
44
0.0000000001
40
0
40
0
40
0
40
0
40
1
40
1
40
1
40
1
41
1
41
1
41
1
41
1
10
35.692379077275625
20
-28.169394540786779
30
0
10
37.498157501220732
20
-31.443611272176124
30
0
10
38.427505652109808
20
-34.962574450174991
30
0
10
38.619334220886245
20
-38.693199046452854
30
0
0
SPLINE
5
214
100
AcDbEntity
8
0
100
AcDbSpline
70
4
71
3
72
8
73
4
74
0
42
0.000000001
43
0.0000000001
44
0.0000000001
40
0
40
0
40
0
40
0
40
1
40
1
40
1
40
1
41
1
41
1
41
1
41
1
10
40.683080991109229
20
8.7432829062143806
30
0
10
42.846052567164136
20
5.015968831380202
30
0
10
44.807274103164687
20
1.1795084794362198
30
0
10
46.219484011332213
20
-2.8983877976735517
30
0
0
SPLINE
5
215
100
AcDbEntity
8
0
100
AcDbSpline
70
4
71
3
72
8
73
4
74
0
42
0.000000001
43
0.0000000001
44
0.0000000001
40
0
40
0
40
0
40
0
40
1
40
1
40
1
40
1
41
1
41
1
41
1
41
1
10
33.641854206721
20
-24.362698602676414
30
0
10
34.243783712387106
20
-25.675693798065197
30
0
10
34.994535287221282
20
-26.906006701787334
30
0
10
35.692379077275625
20
-28.169394540786779
30
0
0
SPLINE
5
216
100
AcDbEntity
8
0
100
AcDbSpline
70
4
71
3
72
8
73
4
74
0
42
0.000000001
43
0.0000000001
44
0.0000000001
40
0
40
0
40
0
40
0
40
1
40
1
40
1
40
1
41
1
41
1
41
1
41
1
10
38.619334220886245
20
-38.693199046452854
30
0
10
38.801231225331641
20
-42.198920138676996
30
0
10
38.311758518219008
20
-45.578982718785625
30
0
10
36.846630732218443
20
-48.787059672673564
30
0
0
SPLINE
5
217
100
AcDbEntity
8
0
100
AcDbSpline
70
4
71
3
72
8
73
4
74
0
42
0.000000001
43
0.0000000001
44
0.0000000001
40
0
40
0
40
0
40
0
40
1
40
1
40
1
40
1
41
1
41
1
41
1
41
1
10
-12.713126818339015
20
-56.175537951787348
30
0
10
-17.214350978533414
20
-57.862248627344798
30
0
10
-21.861096779505417
20
-58.179755894343081
30
0
10
-26.53430151939391
20
-56.886613734563213
30
0
0
SPLINE
5
218
100
AcDbEntity
8
0
100
AcDbSpline
70
4
71
3
72
8
73
4
74
0
42
0.000000001
43
0.0000000001
44
0.0000000001
40
0
40
0
40
0
40
0
40
1
40
1
40
1
40
1
41
1
41
1
41
1
41
1
10
-2.4539217948913472
20
27.326965681711822
30
0
10
-1.4914987087249614
20
26.222331476211536
30
0
10
-0.58530402183531116
20
25.074700864156068
30
0
10
0.16545764605205626
20
23.817934068044021
30
0
0
SPLINE
5
219
100
AcDbEntity
8
0
100
AcDbSpline
70
4
71
3
72
8
73
4
74
0
42
0.000000001
43
0.0000000001
44
0.0000000001
40
0
40
0
40
0
40
0
40
1
40
1
40
1
40
1
41
1
41
1
41
1
41
1
10
-40.745734214782715
20
8.2934960842132366
30
0
10
-39.813075542449951
20
10.231564156214379
30
0
10
-38.486853400866188
20
11.87198808987935
30
0
10
-36.595082163810723
20
12.953468831380201
30
0
0
SPLINE
5
220
100
AcDbEntity
8
0
100
AcDbSpline
70
4
71
3
72
8
73
4
74
0
42
0.000000001
43
0.0000000001
44
0.0000000001
40
0
40
0
40
0
40
0
40
1
40
1
40
1
40
1
41
1
41
1
41
1
41
1
10
-12.088074127833039
20
-10.521680959065783
30
0
10
-14.568542877833037
20
-13.064989058176701
30
0
10
-16.959713339805596
20
-15.697590398788464
30
0
10
-19.632005612055448
20
-18.052380450566631
30
0
0
SPLINE
5
221
100
AcDbEntity
8
0
100
AcDbSpline
70
4
71
3
72
8
73
4
74
0
42
0.000000001
43
0.0000000001
44
0.0000000001
40
0
40
0
40
0
40
0
40
1
40
1
40
1
40
1
41
1
41
1
41
1
41
1
10
-46.146542112032577
20
-3.943483082453425
30
0
10
-45.326335191726663
20
-0.98345300356548204
30
0
10
-44.019955992698669
20
1.758284521102893
30
0
10
-42.554823160171516
20
4.4338822682698398
30
0
0
SPLINE
5
222
100
AcDbEntity
8
0
100
AcDbSpline
70
4
71
3
72
8
73
4
74
0
42
0.000000001
43
0.0000000001
44
0.0000000001
40
0
40
0
40
0
40
0
40
1
40
1
40
1
40
1
41
1
41
1
41
1
41
1
10
-19.145833333333321
20
20.328735303878776
30
0
10
-17.376430273056023
20
22.547925186157201
30
0
10
-15.788934310277297
20
24.922568273544293
30
0
10
-13.665648619333894
20
26.847404352823894
30
0
0
SPLINE
5
223
100
AcDbEntity
8
0
100
AcDbSpline
70
4
71
3
72
8
73
4
74
0
42
0.000000001
43
0.0000000001
44
0.0000000001
40
0
40
0
40
0
40
0
40
1
40
1
40
1
40
1
41
1
41
1
41
1
41
1
10
-13.665648619333894
20
26.847404352823894
30
0
10
-12.802450338999416
20
27.627920341491684
30
0
10
-11.89294513066609
20
28.335685602823894
30
0
10
-10.861061652501418
20
28.874775759379048
30
0
0
SPLINE
5
224
100
AcDbEntity
8
0
100
AcDbSpline
70
4
71
3
72
8
73
4
74
0
42
0.000000001
43
0.0000000001
44
0.0000000001
40
0
40
0
40
0
40
0
40
1
40
1
40
1
40
1
41
1
41
1
41
1
41
1
10
0.96580648422242898
20
-4.0261552810669121
30
0
10
-0.49932130177814615
20
-3.9997013886769794
30
0
10
-1.9545276165008474
20
-4.141912508010881
30
0
10
-3.4064335028330417
20
-4.2973556200663454
30
0
0
SPLINE
5
225
100
AcDbEntity
8
0
100
AcDbSpline
70
4
71
3
72
8
73
4
74
0
42
0.000000001
43
0.0000000001
44
0.0000000001
40
0
40
0
40
0
40
0
40
1
40
1
40
1
40
1
41
1
41
1
41
1
41
1
10
-33.244794090588883
20
-24.577680635452293
30
0
10
-33.135652860005692
20
-24.382551638285332
30
0
10
-33.029822150866195
20
-24.187422641118395
30
0
10
-32.92068092028299
20
-23.992293643951434
30
0
0
SPLINE
5
226
100
AcDbEntity
8
0
100
AcDbSpline
70
4
71
3
72
8
73
4
74
0
42
0.000000001
43
0.0000000001
44
0.0000000001
40
0
40
0
40
0
40
0
40
1
40
1
40
1
40
1
41
1
41
1
41
1
41
1
10
46.116958777109801
20
-12.413462289174415
30
0
10
45.475343386332227
20
-13.898433017730728
30
0
10
44.585681120554625
20
-15.231271155675262
30
0
10
43.576961199442572
20
-16.484737523396831
30
0
0
SPLINE
5
227
100
AcDbEntity
8
0
100
AcDbSpline
70
4
71
3
72
8
73
4
74
0
42
0.000000001
43
0.0000000001
44
0.0000000001
40
0
40
0
40
0
40
0
40
1
40
1
40
1
40
1
41
1
41
1
41
1
41
1
10
-24.735134045282994
20
7.0168762524922546
30
0
10
-24.715311288833615
20
6.9904324531554902
30
0
10
-24.672314882278442
20
6.9739000320434341
30
0
10
-24.573100169499714
20
6.9044396400451458
30
0
0
SPLINE
5
228
100
AcDbEntity
8
0
100
AcDbSpline
70
4
71
3
72
8
73
4
74
0
42
0.000000001
43
0.0000000001
44
0.0000000001
40
0
40
0
40
0
40
0
40
1
40
1
40
1
40
1
41
1
41
1
41
1
41
1
10
41.546269178390524
20
13.562019379933666
30
0
10
41.030332485834776
20
14.818786176045728
30
0
10
40.511085271835341
20
16.075563065210964
30
0
10
39.98522710800173
20
17.329029432932526
30
0
0
SPLINE
5
229
100
AcDbEntity
8
0
100
AcDbSpline
70
4
71
3
72
8
73
4
74
0
42
0.000000001
43
0.0000000001
44
0.0000000001
40
0
40
0
40
0
40
0
40
1
40
1
40
1
40
1
41
1
41
1
41
1
41
1
10
16.612622737884536
20
25.302894703547139
30
0
10
18.974033832550063
20
22.28002527554829
30
0
10
21.242831071217879
20
19.184405120213821
30
0
10
23.114759365717589
20
15.820885054270416
30
0
0
SPLINE
5
230
100
AcDbEntity
8
0
100
AcDbSpline
70
4
71
3
72
8
73
4
74
0
42
0.000000001
43
0.0000000001
44
0.0000000001
40
0
40
0
40
0
40
0
40
1
40
1
40
1
40
1
41
1
41
1
41
1
41
1
10
-35.748416304588304
20
-29.1086742560069
30
0
10
-35.01750262578328
20
-27.541021235783923
30
0
10
-34.084848999977112
20
-26.08580482800804
30
0
10
-33.244794090588883
20
-24.577680635452293
30
0
0
SPLINE
5
231
100
AcDbEntity
8
0
100
AcDbSpline
70
4
71
3
72
8
73
4
74
0
42
0.000000001
43
0.0000000001
44
0.0000000001
40
0
40
0
40
0
40
0
40
1
40
1
40
1
40
1
41
1
41
1
41
1
41
1
10
14.039550224939997
20
-57.372775920232151
30
0
10
10.818251371383688
20
-56.797310400009167
30
0
10
7.6763242880503491
20
-55.881184148788492
30
0
10
4.4814793268839725
20
-55.199882872899408
30
0
0
SPLINE
5
232
100
AcDbEntity
8
0
100
AcDbSpline
70
4
71
3
72
8
73
4
74
0
42
0.000000001
43
0.0000000001
44
0.0000000001
40
0
40
0
40
0
40
0
40
1
40
1
40
1
40
1
41
1
41
1
41
1
41
1
10
-25.019561330477394
20
7.5559664090474321
30
0
10
-24.92365209261575
20
7.3773698329925308
30
0
10
-24.834353804588304
20
7.1954728285471354
30
0
10
-24.735134045282994
20
7.0168762524922546
30
0
0
SPLINE
5
233
100
AcDbEntity
8
0
100
AcDbSpline
70
4
71
3
72
8
73
4
74
0
42
0.000000001
43
0.0000000001
44
0.0000000001
40
0
40
0
40
0
40
0
40
1
40
1
40
1
40
1
41
1
41
1
41
1
41
1
10
-3.4064335028330417
20
-4.2973556200663454
30
0
10
-4.6665108203887833
20
-4.4329557895660621
30
0
10
-5.7810664971669432
20
-4.8562887191772708
30
0
10
-6.7864859898884937
20
-5.6731901645660665
30
0
0
SPLINE
5
234
100
AcDbEntity
8
0
100
AcDbSpline
70
4
71
3
72
8
73
4
74
0
42
0.000000001
43
0.0000000001
44
0.0000000001
40
0
40
0
40
0
40
0
40
1
40
1
40
1
40
1
41
1
41
1
41
1
41
1
10
36.945845444997161
20
12.682268492380766
30
0
10
38.566416343053213
20
11.736387920379631
30
0
10
39.757043361663847
20
10.340710433324166
30
0
10
40.683080991109229
20
8.7432829062143806
30
0
0
SPLINE
5
235
100
AcDbEntity
8
0
100
AcDbSpline
70
4
71
3
72
8
73
4
74
0
42
0.000000001
43
0.0000000001
44
0.0000000001
40
0
40
0
40
0
40
0
40
1
40
1
40
1
40
1
41
1
41
1
41
1
41
1
10
-24.573100169499714
20
6.9044396400451458
30
0
10
-24.708700338999424
20
9.279072634379057
30
0
10
-23.91825783252715
20
11.418890746434521
30
0
10
-23.170806686083473
20
13.552097908655792
30
0
0
SPLINE
5
236
100
AcDbEntity
8
0
100
AcDbSpline
70
4
71
3
72
8
73
4
74
0
42
0.000000001
43
0.0000000001
44
0.0000000001
40
0
40
0
40
0
40
0
40
1
40
1
40
1
40
1
41
1
41
1
41
1
41
1
10
-6.7864859898884937
20
-5.6731901645660665
30
0
10
-8.6484928131103445
20
-7.1879253069560001
30
0
10
-10.411274830500275
20
-8.8051957766215097
30
0
10
-12.088074127833039
20
-10.521680959065783
30
0
0
SPLINE
5
237
100
AcDbEntity
8
0
100
AcDbSpline
70
4
71
3
72
8
73
4
74
0
42
0.000000001
43
0.0000000001
44
0.0000000001
40
0
40
0
40
0
40
0
40
1
40
1
40
1
40
1
41
1
41
1
41
1
41
1
10
24.970145146052054
20
6.1602889219919632
30
0
10
25.902803818384822
20
7.8370882193247393
30
0
10
26.904912789662699
20
9.2559090773264519
30
0
10
28.098840236663829
20
10.532528909047436
30
0
0
SPLINE
5
238
100
AcDbEntity
8
0
100
AcDbSpline
70
4
71
3
72
8
73
4
74
0
42
0.000000001
43
0.0000000001
44
0.0000000001
40
0
40
0
40
0
40
0
40
1
40
1
40
1
40
1
41
1
41
1
41
1
41
1
10
-33.155500849088035
20
-23.502810843785625
30
0
10
-36.165138284365334
20
-23.205156612396259
30
0
10
-38.37771217028299
20
-21.548200257619232
30
0
10
-40.276099403699234
20
-19.345542796452865
30
0
0
SPLINE
5
239
100
AcDbEntity
8
0
100
AcDbSpline
70
4
71
3
72
8
73
4
74
0
42
0.000000001
43
0.0000000001
44
0.0000000001
40
0
40
0
40
0
40
0
40
1
40
1
40
1
40
1
41
1
41
1
41
1
41
1
10
-31.085153222084042
20
-30.332356023788478
30
0
10
-33.595386385917656
20
-35.359443394343074
30
0
10
-33.859970728556313
20
-40.647799539566059
30
0
10
-32.074035247166947
20
-45.893159278233867
30
0
0
SPLINE
5
240
100
AcDbEntity
8
0
100
AcDbSpline
70
4
71
3
72
8
73
4
74
0
42
0.000000001
43
0.0000000001
44
0.0000000001
40
0
40
0
40
0
40
0
40
1
40
1
40
1
40
1
41
1
41
1
41
1
41
1
10
23.114759365717589
20
15.820885054270416
30
0
10
24.761794249216727
20
12.864165496826166
30
0
10
25.482781410217299
20
9.7156274636586382
30
0
10
24.970145146052054
20
6.1602889219919632
30
0
0
SPLINE
5
241
100
AcDbEntity
8
0
100
AcDbSpline
70
4
71
3
72
8
73
4
74
0
42
0.000000001
43
0.0000000001
44
0.0000000001
40
0
40
0
40
0
40
0
40
1
40
1
40
1
40
1
41
1
41
1
41
1
41
1
10
0.16545764605205626
20
23.817934068044021
30
0
10
0.41681504249574175
20
23.401212088266998
30
0
10
0.53587269783020641
20
23.371447674433373
30
0
10
0.76738715171815519
20
23.824545017878208
30
0
0
LINE
5
242
100
AcDbEntity
8
0
100
AcDbLine
10
41.943148215611792
20
12.602906815210968
30
0
11
41.91999475161235
21
12.652514171600338
31
0
0
SPLINE
5
243
100
AcDbEntity
8
0
100
AcDbSpline
70
4
71
3
72
8
73
4
74
0
42
0.000000001
43
0.0000000001
44
0.0000000001
40
0
40
0
40
0
40
0
40
1
40
1
40
1
40
1
41
1
41
1
41
1
41
1
10
28.098840236663829
20
10.532528909047436
30
0
10
29.061263322830214
20
11.564402294158915
30
0
10
30.093136707941696
20
12.540057373046867
30
0
10
31.363135496775342
20
13.145287307103469
30
0
0
SPLINE
5
244
100
AcDbEntity
8
0
100
AcDbSpline
70
4
71
3
72
8
73
4
74
0
42
0.000000001
43
0.0000000001
44
0.0000000001
40
0
40
0
40
0
40
0
40
1
40
1
40
1
40
1
41
1
41
1
41
1
41
1
10
36.846630732218443
20
-48.787059672673564
30
0
10
34.56790192921958
20
-53.774461158116665
30
0
10
30.559466044108092
20
-56.493045218785625
30
0
10
25.290952841440859
20
-57.541451025009195
30
0
0
SPLINE
5
245
100
AcDbEntity
8
0
100
AcDbSpline
70
4
71
3
72
8
73
4
74
0
42
0.000000001
43
0.0000000001
44
0.0000000001
40
0
40
0
40
0
40
0
40
1
40
1
40
1
40
1
41
1
41
1
41
1
41
1
10
-26.067992369333894
20
-24.008815972010321
30
0
10
-27.972990552584328
20
-25.930351622899384
30
0
10
-29.868072311083477
20
-27.894883680343654
30
0
10
-31.085153222084042
20
-30.332356023788478
30
0
0
SPLINE
5
246
100
AcDbEntity
8
0
100
AcDbSpline
70
4
71
3
72
8
73
4
74
0
42
0.000000001
43
0.0000000001
44
0.0000000001
40
0
40
0
40
0
40
0
40
1
40
1
40
1
40
1
41
1
41
1
41
1
41
1
10
-24.47056988875071
20
-52.573892482121792
30
0
10
-21.083901405334462
20
-53.255193758010897
30
0
10
-17.730307857195527
20
-53.056764332453419
30
0
10
-14.515619953473404
20
-51.839683421452861
30
0
0
SPLINE
5
247
100
AcDbEntity
8
0
100
AcDbSpline
70
4
71
3
72
8
73
4
74
0
42
0.000000001
43
0.0000000001
44
0.0000000001
40
0
40
0
40
0
40
0
40
1
40
1
40
1
40
1
41
1
41
1
41
1
41
1
10
-42.554823160171516
20
4.4338822682698398
30
0
10
-41.870211362838738
20
5.684038114547719
30
0
10
-41.360890666643769
20
7.0135657310485637
30
0
10
-40.745734214782715
20
8.2934960842132366
30
0
0
SPLINE
5
248
100
AcDbEntity
8
0
100
AcDbSpline
70
4
71
3
72
8
73
4
74
0
42
0.000000001
43
0.0000000001
44
0.0000000001
40
0
40
0
40
0
40
0
40
1
40
1
40
1
40
1
41
1
41
1
41
1
41
1
10
-14.515619953473404
20
-51.839683421452861
30
0
10
-8.4136678377787177
20
-49.527889776229884
30
0
10
-2.1893424987792813
20
-49.164075581232737
30
0
10
4.1771939595540584
20
-50.351402171452847
30
0
0
SPLINE
5
249
100
AcDbEntity
8
0
100
AcDbSpline
70
4
71
3
72
8
73
4
74
0
42
0.000000001
43
0.0000000001
44
0.0000000001
40
0
40
0
40
0
40
0
40
1
40
1
40
1
40
1
41
1
41
1
41
1
41
1
10
25.290952841440859
20
-57.541451025009195
30
0
10
21.527253309885683
20
-58.292212692896555
30
0
10
17.780096292495738
20
-58.040855296452861
30
0
10
14.039550224939997
20
-57.372775920232151
30
0
0
SPLINE
5
250
100
AcDbEntity
8
0
100
AcDbSpline
70
4
71
3
72
8
73
4
74
0
42
0.000000001
43
0.0000000001
44
0.0000000001
40
0
40
0
40
0
40
0
40
1
40
1
40
1
40
1
41
1
41
1
41
1
41
1
10
-36.502478400866188
20
-47.543514776229898
30
0
10
-37.706332365671798
20
-44.500802405675266
30
0
10
-37.954379240671798
20
-41.279503552118953
30
0
10
-37.779093186060578
20
-38.018518813451152
30
0
0
SPLINE
5
251
100
AcDbEntity
8
0
100
AcDbSpline
70
4
71
3
72
8
73
4
74
0
42
0.000000001
43
0.0000000001
44
0.0000000001
40
0
40
0
40
0
40
0
40
1
40
1
40
1
40
1
41
1
41
1
41
1
41
1
10
46.219484011332213
20
-2.8983877976735517
30
0
10
47.314196745554618
20
-6.0601578235626397
30
0
10
47.479561328887968
20
-9.2550027847290153
30
0
10
46.116958777109801
20
-12.413462289174415
30
0
0
SPLINE
5
252
100
AcDbEntity
8
0
100
AcDbSpline
70
4
71
3
72
8
73
4
74
0
42
0.000000001
43
0.0000000001
44
0.0000000001
40
0
40
0
40
0
40
0
40
1
40
1
40
1
40
1
41
1
41
1
41
1
41
1
10
-32.92068092028299
20
-23.992293643951434
30
0
10
-32.768543283144638
20
-23.717792876561504
30
0
10
-32.781775275866181
20
-23.542506821950294
30
0
10
-33.155500849088035
20
-23.502810843785625
30
0
0
SPLINE
5
253
100
AcDbEntity
8
0
100
AcDbSpline
70
4
71
3
72
8
73
4
74
0
42
0.000000001
43
0.0000000001
44
0.0000000001
40
0
40
0
40
0
40
0
40
1
40
1
40
1
40
1
41
1
41
1
41
1
41
1
10
-44.182010054588297
20
-14.592966286341369
30
0
10
-46.655862808227546
20
-11.374967861175556
30
0
10
-47.22141190369922
20
-7.8229398409525697
30
0
10
-46.146542112032577
20
-3.943483082453425
30
0
0
SPLINE
5
254
100
AcDbEntity
8
0
100
AcDbSpline
70
4
71
3
72
8
73
4
74
0
42
0.000000001
43
0.0000000001
44
0.0000000001
40
0
40
0
40
0
40
0
40
1
40
1
40
1
40
1
41
1
41
1
41
1
41
1
10
38.48042352994284
20
-21.869007953008037
30
0
10
37.127742449442557
20
-22.927345323562641
30
0
10
35.642771720886245
20
-23.684707848231024
30
0
10
33.889901081720993
20
-23.787233082453429
30
0
0
SPLINE
5
255
100
AcDbEntity
8
0
100
AcDbSpline
70
4
71
3
72
8
73
4
74
0
42
0.000000001
43
0.0000000001
44
0.0000000001
40
0
40
0
40
0
40
0
40
1
40
1
40
1
40
1
41
1
41
1
41
1
41
1
10
-26.53430151939391
20
-56.886613734563213
30
0
10
-31.465474605560296
20
-55.520700661341365
30
0
10
-34.66031956672667
20
-52.190255530675259
30
0
10
-36.502478400866188
20
-47.543514776229898
30
0
0
SPLINE
5
256
100
AcDbEntity
8
0
100
AcDbSpline
70
4
71
3
72
8
73
4
74
0
42
0.000000001
43
0.0000000001
44
0.0000000001
40
0
40
0
40
0
40
0
40
1
40
1
40
1
40
1
41
1
41
1
41
1
41
1
10
-32.074035247166947
20
-45.893159278233867
30
0
10
-30.870181282361344
20
-49.425344355901117
30
0
10
-28.283876776695248
20
-51.806598393122378
30
0
10
-24.47056988875071
20
-52.573892482121792
30
0
0
SPLINE
5
257
100
AcDbEntity
8
0
100
AcDbSpline
70
4
71
3
72
8
73
4
74
0
42
0.000000001
43
0.0000000001
44
0.0000000001
40
0
40
0
40
0
40
0
40
1
40
1
40
1
40
1
41
1
41
1
41
1
41
1
10
-28.204484820365895
20
11.908363453547155
30
0
10
-26.841882268587739
20
10.674740028381336
30
0
10
-25.879459182421371
20
9.153393936157217
30
0
10
-25.019561330477394
20
7.5559664090474321
30
0
0
SPLINE
5
258
100
AcDbEntity
8
0
100
AcDbSpline
70
4
71
3
72
8
73
4
74
0
42
0.000000001
43
0.0000000001
44
0.0000000001
40
0
40
0
40
0
40
0
40
1
40
1
40
1
40
1
41
1
41
1
41
1
41
1
10
-35.285417675971985
20
-17.40415410995486
30
0
10
-34.131171067555734
20
-18.512098836898815
30
0
10
-32.718961159388222
20
-18.895745881398533
30
0
10
-31.177762031555169
20
-18.303737847010314
30
0
0
SPLINE
5
259
100
AcDbEntity
8
0
100
AcDbSpline
70
4
71
3
72
8
73
4
74
0
42
0.000000001
43
0.0000000001
44
0.0000000001
40
0
40
0
40
0
40
0
40
1
40
1
40
1
40
1
41
1
41
1
41
1
41
1
10
33.889901081720993
20
-23.787233082453429
30
0
10
33.380575338999435
20
-23.816997496287051
30
0
10
33.519486029942847
20
-24.091508356730174
30
0
10
33.641854206721
20
-24.362698602676414
30
0
0
SPLINE
5
260
100
AcDbEntity
8
0
100
AcDbSpline
70
4
71
3
72
8
73
4
74
0
42
0.000000001
43
0.0000000001
44
0.0000000001
40
0
40
0
40
0
40
0
40
1
40
1
40
1
40
1
41
1
41
1
41
1
41
1
10
-23.170806686083473
20
13.552097908655792
30
0
10
-22.287760416666664
20
16.072252543767274
30
0
10
-20.799479166666657
20
18.255067062377918
30
0
10
-19.145833333333321
20
20.328735303878776
30
0
0
SPLINE
5
261
100
AcDbEntity
8
0
100
AcDbSpline
70
4
71
3
72
8
73
4
74
0
42
0.000000001
43
0.0000000001
44
0.0000000001
40
0
40
0
40
0
40
0
40
1
40
1
40
1
40
1
41
1
41
1
41
1
41
1
10
39.98522710800173
20
17.329029432932526
30
0
10
38.725149790445982
20
20.325434875488256
30
0
10
36.509260336558043
20
24.565385214487701
30
0
10
31.819523175557464
20
26.926786216100052
30
0
0
SPLINE
5
262
100
AcDbEntity
8
0
100
AcDbSpline
70
4
71
3
72
8
73
4
74
0
42
0.000000001
43
0.0000000001
44
0.0000000001
40
0
40
0
40
0
40
0
40
1
40
1
40
1
40
1
41
1
41
1
41
1
41
1
10
0.76738715171815519
20
23.824545017878208
30
0
10
1.5809780756632508
20
25.42527297337849
30
0
10
2.5301691691080741
20
26.930096737543721
30
0
10
3.8696283499399886
20
28.160399548212673
30
0
0
SPLINE
5
263
100
AcDbEntity
8
0
100
AcDbSpline
70
4
71
3
72
8
73
4
74
0
42
0.000000001
43
0.0000000001
44
0.0000000001
40
0
40
0
40
0
40
0
40
1
40
1
40
1
40
1
41
1
41
1
41
1
41
1
10
-10.861061652501418
20
28.874775759379048
30
0
10
-8.0928601423899256
20
30.320060602823883
30
0
10
-4.9707760016123341
20
30.214224847157787
30
0
10
-2.4539217948913472
20
27.326965681711822
30
0
0
SPLINE
5
264
100
AcDbEntity
8
0
100
AcDbSpline
70
4
71
3
72
8
73
4
74
0
42
0.000000001
43
0.0000000001
44
0.0000000001
40
0
40
0
40
0
40
0
40
1
40
1
40
1
40
1
41
1
41
1
41
1
41
1
10
31.363135496775342
20
13.145287307103469
30
0
10
33.281360626220724
20
14.058103036880487
30
0
10
35.169831434885694
20
13.717452398935938
30
0
10
36.945845444997161
20
12.682268492380766
30
0
0
SPLINE
5
265
100
AcDbEntity
8
0
100
AcDbSpline
70
4
71
3
72
8
73
4
74
0
42
0.000000001
43
0.0000000001
44
0.0000000001
40
0
40
0
40
0
40
0
40
1
40
1
40
1
40
1
41
1
41
1
41
1
41
1
10
4.4814793268839725
20
-55.199882872899408
30
0
10
-1.3360455036163255
20
-53.959648497899408
30
0
10
-7.0576661427815619
20
-54.055552689234432
30
0
10
-12.713126818339015
20
-56.175537951787348
30
0
0
SPLINE
5
266
100
AcDbEntity
8
0
100
AcDbSpline
70
4
71
3
72
8
73
4
74
0
42
0.000000001
43
0.0000000001
44
0.0000000001
40
0
40
0
40
0
40
0
40
1
40
1
40
1
40
1
41
1
41
1
41
1
41
1
10
-40.276099403699234
20
-19.345542796452865
30
0
10
-41.615553538004548
20
-17.791111675898264
30
0
10
-42.931854208310448
20
-16.220148134231579
30
0
10
-44.182010054588297
20
-14.592966286341369
30
0
0
SPLINE
5
267
100
AcDbEntity
8
0
100
AcDbSpline
70
4
71
3
72
8
73
4
74
0
42
0.000000001
43
0.0000000001
44
0.0000000001
40
0
40
0
40
0
40
0
40
1
40
1
40
1
40
1
41
1
41
1
41
1
41
1
10
-19.632005612055448
20
-18.052380450566631
30
0
10
-21.824741601943963
20
-19.987148094177275
30
0
10
-24.010861595471692
20
-21.931837209065776
30
0
10
-26.067992369333894
20
-24.008815972010321
30
0
0
SPLINE
5
268
100
AcDbEntity
8
0
100
AcDbSpline
70
4
71
3
72
8
73
4
74
0
42
0.000000001
43
0.0000000001
44
0.0000000001
40
0
40
0
40
0
40
0
40
1
40
1
40
1
40
1
41
1
41
1
41
1
41
1
10
43.576961199442572
20
-16.484737523396831
30
0
10
42.022530078887961
20
-18.416194645563788
30
0
10
40.448266108830794
20
-20.331119346618664
30
0
10
38.48042352994284
20
-21.869007953008037
30
0
0
SPLINE
5
269
100
AcDbEntity
8
0
100
AcDbSpline
70
4
71
3
72
8
73
4
74
0
42
0.000000001
43
0.0000000001
44
0.0000000001
40
0
40
0
40
0
40
0
40
1
40
1
40
1
40
1
41
1
41
1
41
1
41
1
10
-36.595082163810723
20
12.953468831380201
30
0
10
-33.830186128616333
20
14.534353844324734
30
0
10
-30.638651688893638
20
14.107710393269834
30
0
10
-28.204484820365895
20
11.908363453547155
30
0
0
SPLINE
5
270
100
AcDbEntity
8
0
100
AcDbSpline
70
4
71
3
72
8
73
4
74
0
42
0.000000001
43
0.0000000001
44
0.0000000001
40
0
40
0
40
0
40
0
40
1
40
1
40
1
40
1
41
1
41
1
41
1
41
1
10
-37.779093186060578
20
-38.018518813451152
30
0
10
-37.613728602727249
20
-34.929509607950877
30
0
10
-37.064716974894196
20
-31.929793643951434
30
0
10
-35.748416304588304
20
-29.1086742560069
30
0
0
SPLINE
5
271
100
AcDbEntity
8
0
100
AcDbSpline
70
4
71
3
72
8
73
4
74
0
42
0.000000001
43
0.0000000001
44
0.0000000001
40
0
40
0
40
0
40
0
40
1
40
1
40
1
40
1
41
1
41
1
41
1
41
1
10
13.523613532384257
20
-11.712318070729587
30
0
10
11.453245719273895
20
-9.6485713005066014
30
0
10
9.4126524130503473
20
-7.5550500233968254
30
0
10
7.1273126602172985
20
-5.7128962357839042
30
0
0
SPLINE
5
272
100
AcDbEntity
8
0
100
AcDbSpline
70
4
71
3
72
8
73
4
74
0
42
0.000000001
43
0.0000000001
44
0.0000000001
40
0
40
0
40
0
40
0
40
1
40
1
40
1
40
1
41
1
41
1
41
1
41
1
10
7.6697032451629701
20
30.048860263824455
30
0
10
9.3531134923299319
20
30.257221253712956
30
0
10
10.894312620162969
20
29.876884730656922
30
0
10
12.356139977773035
20
29.079826227823879
30
0
0
SPLINE
5
273
100
AcDbEntity
8
0
100
AcDbSpline
70
4
71
3
72
8
73
4
74
0
42
0.000000001
43
0.0000000001
44
0.0000000001
40
0
40
0
40
0
40
0
40
1
40
1
40
1
40
1
41
1
41
1
41
1
41
1
10
27.731715520223009
20
1.06706177393594
30
0
10
26.259976784388233
20
-2.2402197996775453
30
0
10
25.271089712778746
20
-5.6731901645660665
30
0
10
25.115656693776454
20
-11.097146479288767
30
0
0
SPLINE
5
274
100
AcDbEntity
8
0
100
AcDbSpline
70
4
71
3
72
8
73
4
74
0
42
0.000000001
43
0.0000000001
44
0.0000000001
40
0
40
0
40
0
40
0
40
1
40
1
40
1
40
1
41
1
41
1
41
1
41
1
10
34.88207848866783
20
7.767637920379622
30
0
10
34.015569686889663
20
8.5746178944905438
30
0
10
33.34749031066896
20
8.6242252508799133
30
0
10
32.371845324834197
20
7.9693778673807643
30
0
0
SPLINE
5
275
100
AcDbEntity
8
0
100
AcDbSpline
70
4
71
3
72
8
73
4
74
0
42
0.000000001
43
0.0000000001
44
0.0000000001
40
0
40
0
40
0
40
0
40
1
40
1
40
1
40
1
41
1
41
1
41
1
41
1
10
30.658670663833636
20
6.2528926849365174
30
0
10
29.451511224110945
20
4.6554752508799035
30
0
10
28.542006015777595
20
2.8860721906025955
30
0
10
27.731715520223009
20
1.06706177393594
30
0
0
SPLINE
5
276
100
AcDbEntity
8
0
100
AcDbSpline
70
4
71
3
72
8
73
4
74
0
42
0.000000001
43
0.0000000001
44
0.0000000001
40
0
40
0
40
0
40
0
40
1
40
1
40
1
40
1
41
1
41
1
41
1
41
1
10
-12.475031693776442
20
-2.8586817264557141
30
0
10
-9.9515665372212592
20
-3.2754037062327157
30
0
10
-7.6860697269439582
20
-2.6172458012899025
30
0
10
-5.6553978919982839
20
-1.1124321301778428
30
0
0
SPLINE
5
277
100
AcDbEntity
8
0
100
AcDbSpline
70
4
71
3
72
8
73
4
74
0
42
0.000000001
43
0.0000000001
44
0.0000000001
40
0
40
0
40
0
40
0
40
1
40
1
40
1
40
1
41
1
41
1
41
1
41
1
10
-4.8451073964436731
20
16.644417635599762
30
0
10
-4.8451073964436731
20
17.964023780822735
30
0
10
-4.8384964466094882
20
19.283640019098904
30
0
10
-4.8484179178873621
20
20.603246164321874
30
0
0
SPLINE
5
278
100
AcDbEntity
8
0
100
AcDbSpline
70
4
71
3
72
8
73
4
74
0
42
0.000000001
43
0.0000000001
44
0.0000000001
40
0
40
0
40
0
40
0
40
1
40
1
40
1
40
1
41
1
41
1
41
1
41
1
10
-4.1009667714436731
20
1.354804627100602
30
0
10
-3.8396879037221132
20
2.7273286501566352
30
0
10
-3.8992268244425388
20
4.1097741444905411
30
0
10
-4.057970364888499
20
5.4789977391560774
30
0
0
SPLINE
5
279
100
AcDbEntity
8
0
100
AcDbSpline
70
4
71
3
72
8
73
4
74
0
42
0.000000001
43
0.0000000001
44
0.0000000001
40
0
40
0
40
0
40
0
40
1
40
1
40
1
40
1
41
1
41
1
41
1
41
1
10
30.149334828058887
20
25.590637556711822
30
0
10
30.390770753224707
20
25.785766553878766
30
0
10
30.62889615694683
20
25.418662023544304
30
0
10
30.870321989059466
20
25.299594275156643
30
0
0
SPLINE
5
280
100
AcDbEntity
8
0
100
AcDbSpline
70
4
71
3
72
8
73
4
74
0
42
0.000000001
43
0.0000000001
44
0.0000000001
40
0
40
0
40
0
40
0
40
1
40
1
40
1
40
1
41
1
41
1
41
1
41
1
10
40.183646440505996
20
11.931527010599767
30
0
10
40.263048489888519
20
11.756240955988552
30
0
10
40.362263202667265
20
11.574333858489982
30
0
10
40.329198360443137
20
11.356061490376778
30
0
0
SPLINE
5
281
100
AcDbEntity
8
0
100
AcDbSpline
70
4
71
3
72
8
73
4
74
0
42
0.000000001
43
0.0000000001
44
0.0000000001
40
0
40
0
40
0
40
0
40
1
40
1
40
1
40
1
41
1
41
1
41
1
41
1
10
7.256271600723271
20
31.080743741989124
30
0
10
6.7634883721669681
20
30.998061450322471
30
0
10
6.6113456885019994
20
31.087354691823315
30
0
10
6.7271029154459683
20
31.633065891265865
30
0
0
SPLINE
5
282
100
AcDbEntity
8
0
100
AcDbSpline
70
4
71
3
72
8
73
4
74
0
42
0.000000001
43
0.0000000001
44
0.0000000001
40
0
40
0
40
0
40
0
40
1
40
1
40
1
40
1
41
1
41
1
41
1
41
1
10
-4.8484179178873621
20
20.603246164321874
30
0
10
-4.858339389165236
20
21.850091489156064
30
0
10
-5.2585188547770079
20
22.951425266265861
30
0
10
-6.1217272281646657
20
23.867541424433373
30
0
0
SPLINE
5
283
100
AcDbEntity
8
0
100
AcDbSpline
70
4
71
3
72
8
73
4
74
0
42
0.000000001
43
0.0000000001
44
0.0000000001
40
0
40
0
40
0
40
0
40
1
40
1
40
1
40
1
41
1
41
1
41
1
41
1
10
31.508636951446558
20
21.879855902989686
30
0
10
31.121679385503157
20
22.881964874267567
30
0
10
30.708267927169818
20
23.87415237426756
30
0
10
30.31800993283592
20
24.87626134554543
30
0
0
SPLINE
5
284
100
AcDbEntity
8
0
100
AcDbSpline
70
4
71
3
72
8
73
4
74
0
42
0.000000001
43
0.0000000001
44
0.0000000001
40
0
40
0
40
0
40
0
40
1
40
1
40
1
40
1
41
1
41
1
41
1
41
1
10
6.7271029154459683
20
31.633065891265865
30
0
10
7.1272823810577624
20
33.531448078155506
30
0
10
6.8097852071126486
20
35.383533430099476
30
0
10
6.2706950505574701
20
37.209164889653515
30
0
0
SPLINE
5
285
100
AcDbEntity
8
0
100
AcDbSpline
70
4
71
3
72
8
73
4
74
0
42
0.000000001
43
0.0000000001
44
0.0000000001
40
0
40
0
40
0
40
0
40
1
40
1
40
1
40
1
41
1
41
1
41
1
41
1
10
39.839715560277334
20
11.693401606877643
30
0
10
37.90164748827619
20
13.71746249198913
30
0
10
35.612997213999449
20
14.878325096766144
30
0
10
32.735649426778167
20
14.593892765045148
30
0
0
SPLINE
5
286
100
AcDbEntity
8
0
100
AcDbSpline
70
4
71
3
72
8
73
4
74
0
42
0.000000001
43
0.0000000001
44
0.0000000001
40
0
40
0
40
0
40
0
40
1
40
1
40
1
40
1
41
1
41
1
41
1
41
1
10
30.837267239888519
20
-18.313659318288192
30
0
10
32.41484173138938
20
-19.186789162953708
30
0
10
33.952740430831923
20
-19.047878472010307
30
0
10
35.338486353556327
20
-17.797722625732447
30
0
0
SPLINE
5
287
100
AcDbEntity
8
0
100
AcDbSpline
70
4
71
3
72
8
73
4
74
0
42
0.000000001
43
0.0000000001
44
0.0000000001
40
0
40
0
40
0
40
0
40
1
40
1
40
1
40
1
41
1
41
1
41
1
41
1
10
35.338486353556327
20
-17.797722625732447
30
0
10
37.478304465611785
20
-15.872876453399677
30
0
10
39.360154231389373
20
-13.729757912953723
30
0
10
40.878199895223005
20
-11.279053576787334
30
0
0
SPLINE
5
288
100
AcDbEntity
8
0
100
AcDbSpline
70
4
71
3
72
8
73
4
74
0
42
0.000000001
43
0.0000000001
44
0.0000000001
40
0
40
0
40
0
40
0
40
1
40
1
40
1
40
1
41
1
41
1
41
1
41
1
10
-14.270883599917088
20
27.985123586654662
30
0
10
-14.247730135917649
20
28.057884407043446
30
0
10
-14.241119186083464
20
28.140566698710106
30
0
10
-14.204738775889073
20
28.20340604782103
30
0
0
SPLINE
5
289
100
AcDbEntity
8
0
100
AcDbSpline
70
4
71
3
72
8
73
4
74
0
42
0.000000001
43
0.0000000001
44
0.0000000001
40
0
40
0
40
0
40
0
40
1
40
1
40
1
40
1
41
1
41
1
41
1
41
1
10
-31.177762031555169
20
-18.303737847010314
30
0
10
-27.26523538430531
20
-16.798914082845059
30
0
10
-24.490417877833039
20
-13.650376049677559
30
0
10
-24.450726946194958
20
-9.0168571949005294
30
0
0
SPLINE
5
290
100
AcDbEntity
8
0
100
AcDbSpline
70
4
71
3
72
8
73
4
74
0
42
0.000000001
43
0.0000000001
44
0.0000000001
40
0
40
0
40
0
40
0
40
1
40
1
40
1
40
1
41
1
41
1
41
1
41
1
10
7.1273126602172985
20
-5.7128962357839042
30
0
10
5.9730710983276403
20
-4.7835480848948286
30
0
10
4.7394476731618438
20
-4.1419326941172452
30
0
10
3.2147910594940354
20
-4.0923253377278757
30
0
0
SPLINE
5
291
100
AcDbEntity
8
0
100
AcDbSpline
70
4
71
3
72
8
73
4
74
0
42
0.000000001
43
0.0000000001
44
0.0000000001
40
0
40
0
40
0
40
0
40
1
40
1
40
1
40
1
41
1
41
1
41
1
41
1
10
-34.534661054611192
20
8.0752237161000302
30
0
10
-35.189503391583749
20
7.4832156817118189
30
0
10
-35.705440084139489
20
6.778760941823303
30
0
10
-36.138699531555169
20
6.0147773742675659
30
0
0
SPLINE
5
292
100
AcDbEntity
8
0
100
AcDbSpline
70
4
71
3
72
8
73
4
74
0
42
0.000000001
43
0.0000000001
44
0.0000000001
40
0
40
0
40
0
40
0
40
1
40
1
40
1
40
1
41
1
41
1
41
1
41
1
10
-36.138699531555169
20
6.0147773742675659
30
0
10
-36.810079336166368
20
4.8307713985442868
30
0
10
-37.445078730583191
20
3.630222908655778
30
0
10
-38.096615592638642
20
2.4362853686014541
30
0
0
SPLINE
5
293
100
AcDbEntity
8
0
100
AcDbSpline
70
4
71
3
72
8
73
4
74
0
42
0.000000001
43
0.0000000001
44
0.0000000001
40
0
40
0
40
0
40
0
40
1
40
1
40
1
40
1
41
1
41
1
41
1
41
1
10
-31.855752786000565
20
8.1843599001566432
30
0
10
-32.847940286000565
20
8.9251900037129435
30
0
10
-33.628461321194962
20
8.8921251614888277
30
0
10
-34.534661054611192
20
8.0752237161000302
30
0
0
SPLINE
5
294
100
AcDbEntity
8
0
100
AcDbSpline
70
4
71
3
72
8
73
4
74
0
42
0.000000001
43
0.0000000001
44
0.0000000001
40
0
40
0
40
0
40
0
40
1
40
1
40
1
40
1
41
1
41
1
41
1
41
1
10
-15.984068353970839
20
-0.60972743034364285
30
0
10
-15.061336199442534
20
-1.7441260496775524
30
0
10
-13.956701993942247
20
-2.6139453728993844
30
0
10
-12.475031693776442
20
-2.8586817264557141
30
0
0
SPLINE
5
295
100
AcDbEntity
8
0
100
AcDbSpline
70
4
71
3
72
8
73
4
74
0
42
0.000000001
43
0.0000000001
44
0.0000000001
40
0
40
0
40
0
40
0
40
1
40
1
40
1
40
1
41
1
41
1
41
1
41
1
10
41.72155523300173
20
-9.2020748138427866
30
0
10
42.108512798945135
20
-7.297071584065784
30
0
10
41.714944283167554
20
-5.4813716888427955
30
0
10
41.020411014556899
20
-3.7252006212870503
30
0
0
SPLINE
5
296
100
AcDbEntity
8
0
100
AcDbSpline
70
4
71
3
72
8
73
4
74
0
42
0.000000001
43
0.0000000001
44
0.0000000001
40
0
40
0
40
0
40
0
40
1
40
1
40
1
40
1
41
1
41
1
41
1
41
1
10
11.33746830622356
20
36.32941400210062
30
0
10
13.07379643122356
20
33.696812661488849
30
0
10
14.509159803390524
20
30.905457687377918
30
0
10
15.908147811889659
20
28.087638727823876
30
0
0
SPLINE
5
297
100
AcDbEntity
8
0
100
AcDbSpline
70
4
71
3
72
8
73
4
74
0
42
0.000000001
43
0.0000000001
44
0.0000000001
40
0
40
0
40
0
40
0
40
1
40
1
40
1
40
1
41
1
41
1
41
1
41
1
10
15.908147811889659
20
28.087638727823876
30
0
10
15.944533268610659
20
28.024809471766133
30
0
10
15.951144218444844
20
27.942127180099476
30
0
10
15.970987161000593
20
27.866055838267002
30
0
0
SPLINE
5
298
100
AcDbEntity
8
0
100
AcDbSpline
70
4
71
3
72
8
73
4
74
0
42
0.000000001
43
0.0000000001
44
0.0000000001
40
0
40
0
40
0
40
0
40
1
40
1
40
1
40
1
41
1
41
1
41
1
41
1
10
-14.204738775889073
20
28.20340604782103
30
0
10
-12.438646237055451
20
31.23619694709776
30
0
10
-10.669243176778146
20
34.259056282043446
30
0
10
-8.4368213017781439
20
36.990882428487119
30
0
0
SPLINE
5
299
100
AcDbEntity
8
0
100
AcDbSpline
70
4
71
3
72
8
73
4
74
0
42
0.000000001
43
0.0000000001
44
0.0000000001
40
0
40
0
40
0
40
0
40
1
40
1
40
1
40
1
41
1
41
1
41
1
41
1
10
25.386867125829081
20
-23.016638565063509
30
0
10
21.487567424774188
20
-19.190099684397399
30
0
10
17.393138726552337
20
-15.571921793619811
30
0
10
13.523613532384257
20
-11.712318070729587
30
0
0
SPLINE
5
300
100
AcDbEntity
8
0
100
AcDbSpline
70
4
71
3
72
8
73
4
74
0
42
0.000000001
43
0.0000000001
44
0.0000000001
40
0
40
0
40
0
40
0
40
1
40
1
40
1
40
1
41
1
41
1
41
1
41
1
10
-17.340059955914803
20
13.796834262212098
30
0
10
-20.310006459554039
20
8.8888146400451422
30
0
10
-18.672898093859352
20
2.7008747577667016
30
0
10
-15.984068353970839
20
-0.60972743034364285
30
0
0
SPLINE
5
301
100
AcDbEntity
8
0
100
AcDbSpline
70
4
71
3
72
8
73
4
74
0
42
0.000000001
43
0.0000000001
44
0.0000000001
40
0
40
0
40
0
40
0
40
1
40
1
40
1
40
1
41
1
41
1
41
1
41
1
10
32.371845324834197
20
7.9693778673807643
30
0
10
31.687233527501434
20
7.5096594810485584
30
0
10
31.151453892389938
20
6.9044295469919748
30
0
10
30.658670663833636
20
6.2528926849365174
30
0
0
SPLINE
5
302
100
AcDbEntity
8
0
100
AcDbSpline
70
4
71
3
72
8
73
4
74
0
42
0.000000001
43
0.0000000001
44
0.0000000001
40
0
40
0
40
0
40
0
40
1
40
1
40
1
40
1
41
1
41
1
41
1
41
1
10
30.870321989059466
20
25.299594275156643
30
0
10
34.591025114059455
20
23.467351865768428
30
0
10
36.7076897621155
20
20.272506904602029
30
0
10
38.255499839782729
20
16.598110707600888
30
0
0
SPLINE
5
303
100
AcDbEntity
8
0
100
AcDbSpline
70
4
71
3
72
8
73
4
74
0
42
0.000000001
43
0.0000000001
44
0.0000000001
40
0
40
0
40
0
40
0
40
1
40
1
40
1
40
1
41
1
41
1
41
1
41
1
10
41.020411014556899
20
-3.7252006212870503
30
0
10
39.783487161000586
20
-0.58658405939739866
30
0
10
38.262130975723295
20
2.4197428544362243
30
0
10
36.661403020222991
20
5.3863838831583521
30
0
0
SPLINE
5
304
100
AcDbEntity
8
0
100
AcDbSpline
70
4
71
3
72
8
73
4
74
0
42
0.000000001
43
0.0000000001
44
0.0000000001
40
0
40
0
40
0
40
0
40
1
40
1
40
1
40
1
41
1
41
1
41
1
41
1
10
3.2147910594940354
20
-4.0923253377278757
30
0
10
2.4673197269439711
20
-4.0691516876220968
30
0
10
1.7165681521097964
20
-4.052619266510038
30
0
10
0.96580648422242898
20
-4.0261552810669121
30
0
0
SPLINE
5
305
100
AcDbEntity
8
0
100
AcDbSpline
70
4
71
3
72
8
73
4
74
0
42
0.000000001
43
0.0000000001
44
0.0000000001
40
0
40
0
40
0
40
0
40
1
40
1
40
1
40
1
41
1
41
1
41
1
41
1
10
-9.852351824442529
20
23.282144339879345
30
0
10
-12.742921511332188
20
20.431260538101178
30
0
10
-15.239932775497424
20
17.266179990768428
30
0
10
-17.340059955914803
20
13.796834262212098
30
0
0
SPLINE
5
306
100
AcDbEntity
8
0
100
AcDbSpline
70
4
71
3
72
8
73
4
74
0
42
0.000000001
43
0.0000000001
44
0.0000000001
40
0
40
0
40
0
40
0
40
1
40
1
40
1
40
1
41
1
41
1
41
1
41
1
10
40.878199895223005
20
-11.279053576787334
30
0
10
41.275078932444274
20
-10.637438186009751
30
0
10
41.569422642389952
20
-9.946215438842799
30
0
10
41.72155523300173
20
-9.2020748138427866
30
0
0
SPLINE
5
307
100
AcDbEntity
8
0
100
AcDbSpline
70
4
71
3
72
8
73
4
74
0
42
0.000000001
43
0.0000000001
44
0.0000000001
40
0
40
0
40
0
40
0
40
1
40
1
40
1
40
1
41
1
41
1
41
1
41
1
10
-5.6553978919982839
20
-1.1124321301778428
30
0
10
-4.8252644538879252
20
-0.49728072484336361
30
0
10
-4.2961058616638041
20
0.33285271326699561
30
0
10
-4.1009667714436731
20
1.354804627100602
30
0
0
SPLINE
5
308
100
AcDbEntity
8
0
100
AcDbSpline
70
4
71
3
72
8
73
4
74
0
42
0.000000001
43
0.0000000001
44
0.0000000001
40
0
40
0
40
0
40
0
40
1
40
1
40
1
40
1
41
1
41
1
41
1
41
1
10
38.255499839782729
20
16.598110707600888
30
0
10
38.907036701838209
20
15.046990108489979
30
0
10
39.545341571172102
20
13.489258559544858
30
0
10
40.183646440505996
20
11.931527010599767
30
0
0
SPLINE
5
309
100
AcDbEntity
8
0
100
AcDbSpline
70
4
71
3
72
8
73
4
74
0
42
0.000000001
43
0.0000000001
44
0.0000000001
40
0
40
0
40
0
40
0
40
1
40
1
40
1
40
1
41
1
41
1
41
1
41
1
10
32.735649426778167
20
14.593892765045148
30
0
10
32.345391432444266
20
14.554206879933652
30
0
10
32.173405806223577
20
14.633578650156643
30
0
10
32.266009569168105
20
15.086675993601474
30
0
0
SPLINE
5
310
100
AcDbEntity
8
0
100
AcDbSpline
70
4
71
3
72
8
73
4
74
0
42
0.000000001
43
0.0000000001
44
0.0000000001
40
0
40
0
40
0
40
0
40
1
40
1
40
1
40
1
41
1
41
1
41
1
41
1
10
-41.486589550971978
20
-5.3623039404551376
30
0
10
-41.96284035841623
20
-7.1548604647318603
30
0
10
-42.048828124999993
20
-8.9110315322876055
30
0
10
-40.990495800971985
20
-10.531602430343657
30
0
0
SPLINE
5
311
100
AcDbEntity
8
0
100
AcDbSpline
70
4
71
3
72
8
73
4
74
0
42
0.000000001
43
0.0000000001
44
0.0000000001
40
0
40
0
40
0
40
0
40
1
40
1
40
1
40
1
41
1
41
1
41
1
41
1
10
5.8705155849456991
20
40.400689236323032
30
0
10
8.2649915218353378
20
39.811991723378497
30
0
10
9.9980192184448402
20
38.363396358489965
30
0
10
11.33746830622356
20
36.32941400210062
30
0
0
SPLINE
5
312
100
AcDbEntity
8
0
100
AcDbSpline
70
4
71
3
72
8
73
4
74
0
42
0.000000001
43
0.0000000001
44
0.0000000001
40
0
40
0
40
0
40
0
40
1
40
1
40
1
40
1
41
1
41
1
41
1
41
1
10
6.2706950505574701
20
37.209164889653515
30
0
10
5.9994947115580377
20
38.121980619430524
30
0
10
5.6886084874471088
20
39.024864784876485
30
0
10
5.4074967702229948
20
39.934369993209827
30
0
0
SPLINE
5
313
100
AcDbEntity
8
0
100
AcDbSpline
70
4
71
3
72
8
73
4
74
0
42
0.000000001
43
0.0000000001
44
0.0000000001
40
0
40
0
40
0
40
0
40
1
40
1
40
1
40
1
41
1
41
1
41
1
41
1
10
15.970987161000593
20
27.866055838267002
30
0
10
14.975489139556892
20
28.6068859418233
30
0
10
14.04945151011151
20
29.387412023544289
30
0
10
12.991114139556901
20
29.995952479044586
30
0
0
SPLINE
5
314
100
AcDbEntity
8
0
100
AcDbSpline
70
4
71
3
72
8
73
4
74
0
42
0.000000001
43
0.0000000001
44
0.0000000001
40
0
40
0
40
0
40
0
40
1
40
1
40
1
40
1
41
1
41
1
41
1
41
1
10
5.4074967702229948
20
39.934369993209827
30
0
10
5.3578894138336253
20
40.09973457654317
30
0
10
5.2057568232218498
20
40.291553052266437
30
0
10
5.3611898422241433
20
40.446996164321902
30
0
0
SPLINE
5
315
100
AcDbEntity
8
0
100
AcDbSpline
70
4
71
3
72
8
73
4
74
0
42
0.000000001
43
0.0000000001
44
0.0000000001
40
0
40
0
40
0
40
0
40
1
40
1
40
1
40
1
41
1
41
1
41
1
41
1
10
4.1771939595540584
20
-50.351402171452847
30
0
10
7.5903213818868087
20
-50.986396519343096
30
0
10
10.917455991109236
20
-52.014979569117244
30
0
10
14.330583413441984
20
-52.653284438451173
30
0
0
SPLINE
5
316
100
AcDbEntity
8
0
100
AcDbSpline
70
4
71
3
72
8
73
4
74
0
42
0.000000001
43
0.0000000001
44
0.0000000001
40
0
40
0
40
0
40
0
40
1
40
1
40
1
40
1
41
1
41
1
41
1
41
1
10
32.266009569168105
20
15.086675993601474
30
0
10
32.738949855168684
20
17.42823405265807
30
0
10
32.361923853556327
20
19.683809391657498
30
0
10
31.508636951446558
20
21.879855902989686
30
0
0
SPLINE
5
317
100
AcDbEntity
8
0
100
AcDbSpline
70
4
71
3
72
8
73
4
74
0
42
0.000000001
43
0.0000000001
44
0.0000000001
40
0
40
0
40
0
40
0
40
1
40
1
40
1
40
1
41
1
41
1
41
1
41
1
10
5.3611898422241433
20
40.446996164321902
30
0
10
5.5166329542795856
20
40.602439276377339
30
0
10
5.7018404801686717
20
40.443685642878208
30
0
10
5.8705155849456991
20
40.400689236323032
30
0
0
SPLINE
5
318
100
AcDbEntity
8
0
100
AcDbSpline
70
4
71
3
72
8
73
4
74
0
42
0.000000001
43
0.0000000001
44
0.0000000001
40
0
40
0
40
0
40
0
40
1
40
1
40
1
40
1
41
1
41
1
41
1
41
1
10
-24.497028827667222
20
-8.1668808142344229
30
0
10
-25.095647811889641
20
-3.2886256059011076
30
0
10
-26.759215116500847
20
1.2059825579325167
30
0
10
-29.391821503639221
20
5.3467080911000497
30
0
0
SPLINE
5
319
100
AcDbEntity
8
0
100
AcDbSpline
70
4
71
3
72
8
73
4
74
0
42
0.000000001
43
0.0000000001
44
0.0000000001
40
0
40
0
40
0
40
0
40
1
40
1
40
1
40
1
41
1
41
1
41
1
41
1
10
12.991114139556901
20
29.995952479044586
30
0
10
11.201868136723846
20
31.021214914321877
30
0
10
9.2968649069468192
20
31.418083858489986
30
0
10
7.256271600723271
20
31.080743741989124
30
0
0
SPLINE
5
320
100
AcDbEntity
8
0
100
AcDbSpline
70
4
71
3
72
8
73
4
74
0
42
0.000000001
43
0.0000000001
44
0.0000000001
40
0
40
0
40
0
40
0
40
1
40
1
40
1
40
1
41
1
41
1
41
1
41
1
10
40.329198360443137
20
11.356061490376778
30
0
10
40.061308542887403
20
11.349450540542596
30
0
10
39.96870477994284
20
11.561111958821591
30
0
10
39.839715560277334
20
11.693401606877643
30
0
0
SPLINE
5
321
100
AcDbEntity
8
0
100
AcDbSpline
70
4
71
3
72
8
73
4
74
0
42
0.000000001
43
0.0000000001
44
0.0000000001
40
0
40
0
40
0
40
0
40
1
40
1
40
1
40
1
41
1
41
1
41
1
41
1
10
-3.3435840606689382
20
40.519756984710696
30
0
10
-3.2476697762807061
20
40.394078286488835
30
0
10
-3.3171301682790055
20
40.245256217320744
30
0
10
-3.3568160533904905
20
40.112956476211551
30
0
0
SPLINE
5
322
100
AcDbEntity
8
0
100
AcDbSpline
70
4
71
3
72
8
73
4
74
0
42
0.000000001
43
0.0000000001
44
0.0000000001
40
0
40
0
40
0
40
0
40
1
40
1
40
1
40
1
41
1
41
1
41
1
41
1
10
30.31800993283592
20
24.87626134554543
30
0
10
30.225406169891368
20
25.11438674926756
30
0
10
29.95751635233562
20
25.435194444656357
30
0
10
30.149334828058887
20
25.590637556711822
30
0
0
SPLINE
5
323
100
AcDbEntity
8
0
100
AcDbSpline
70
4
71
3
72
8
73
4
74
0
42
0.000000001
43
0.0000000001
44
0.0000000001
40
0
40
0
40
0
40
0
40
1
40
1
40
1
40
1
41
1
41
1
41
1
41
1
10
-3.3568160533904905
20
40.112956476211551
30
0
10
-3.6974666913350296
20
38.922329457600902
30
0
10
-4.0513493220011316
20
37.738323481877629
30
0
10
-4.3754574457804303
20
36.547696463267002
30
0
0
SPLINE
5
324
100
AcDbEntity
8
0
100
AcDbSpline
70
4
71
3
72
8
73
4
74
0
42
0.000000001
43
0.0000000001
44
0.0000000001
40
0
40
0
40
0
40
0
40
1
40
1
40
1
40
1
41
1
41
1
41
1
41
1
10
36.661403020222991
20
5.3863838831583521
30
0
10
36.188462734222433
20
6.2628141562143913
30
0
10
35.616297642389952
20
7.0830261230468539
30
0
10
34.88207848866783
20
7.767637920379622
30
0
0
SPLINE
5
325
100
AcDbEntity
8
0
100
AcDbSpline
70
4
71
3
72
8
73
4
74
0
42
0.000000001
43
0.0000000001
44
0.0000000001
40
0
40
0
40
0
40
0
40
1
40
1
40
1
40
1
41
1
41
1
41
1
41
1
10
-4.057970364888499
20
5.4789977391560774
30
0
10
-4.4779927730560187
20
9.1930899143218863
30
0
10
-5.0170829296111963
20
12.89063957532246
30
0
10
-4.8451073964436731
20
16.644417635599762
30
0
0
SPLINE
5
326
100
AcDbEntity
8
0
100
AcDbSpline
70
4
71
3
72
8
73
4
74
0
42
0.000000001
43
0.0000000001
44
0.0000000001
40
0
40
0
40
0
40
0
40
1
40
1
40
1
40
1
41
1
41
1
41
1
41
1
10
-38.096615592638642
20
2.4362853686014541
30
0
10
-39.459218144416795
20
-0.060715802510590833
30
0
10
-40.752370397249848
20
-2.5908020019531408
30
0
10
-41.486589550971978
20
-5.3623039404551376
30
0
0
SPLINE
5
327
100
AcDbEntity
8
0
100
AcDbSpline
70
4
71
3
72
8
73
4
74
0
42
0.000000001
43
0.0000000001
44
0.0000000001
40
0
40
0
40
0
40
0
40
1
40
1
40
1
40
1
41
1
41
1
41
1
41
1
10
25.115656693776454
20
-11.097146479288767
30
0
10
25.003209988276168
20
-13.620611635843938
30
0
10
27.318314154942843
20
-16.365659681956
30
0
10
30.837267239888519
20
-18.313659318288192
30
0
0
SPLINE
5
328
100
AcDbEntity
8
0
100
AcDbSpline
70
4
71
3
72
8
73
4
74
0
42
0.000000001
43
0.0000000001
44
0.0000000001
40
0
40
0
40
0
40
0
40
1
40
1
40
1
40
1
41
1
41
1
41
1
41
1
10
-6.1217272281646657
20
23.867541424433373
30
0
10
-6.8592569033304702
20
24.651367934544872
30
0
10
-7.4479544162750173
20
24.760514211654659
30
0
10
-8.4070669809977154
20
24.287563832600888
30
0
0
SPLINE
5
329
100
AcDbEntity
8
0
100
AcDbSpline
70
4
71
3
72
8
73
4
74
0
42
0.000000001
43
0.0000000001
44
0.0000000001
40
0
40
0
40
0
40
0
40
1
40
1
40
1
40
1
41
1
41
1
41
1
41
1
10
24.844466447830218
20
-52.84180248578393
30
0
10
29.117491722106948
20
-51.905833292007472
30
0
10
31.941911538442
20
-49.398920742670711
30
0
10
33.208609898885108
20
-45.211878188451152
30
0
0
SPLINE
5
330
100
AcDbEntity
8
0
100
AcDbSpline
70
4
71
3
72
8
73
4
74
0
42
0.000000001
43
0.0000000001
44
0.0000000001
40
0
40
0
40
0
40
0
40
1
40
1
40
1
40
1
41
1
41
1
41
1
41
1
10
33.208609898885108
20
-45.211878188451152
30
0
10
34.607597907384246
20
-40.581669855117823
30
0
10
34.171032985051497
20
-36.05067623456322
30
0
10
32.216422398885101
20
-31.668514776229873
30
0
0
SPLINE
5
331
100
AcDbEntity
8
0
100
AcDbSpline
70
4
71
3
72
8
73
4
74
0
42
0.000000001
43
0.0000000001
44
0.0000000001
40
0
40
0
40
0
40
0
40
1
40
1
40
1
40
1
41
1
41
1
41
1
41
1
10
32.216422398885101
20
-31.668514776229873
30
0
10
30.678533792495756
20
-28.215701468785625
30
0
10
28.026079416275049
20
-25.606253592173278
30
0
10
25.386867125829081
20
-23.016638565063509
30
0
0
SPLINE
5
332
100
AcDbEntity
8
0
100
AcDbSpline
70
4
71
3
72
8
73
4
74
0
42
0.000000001
43
0.0000000001
44
0.0000000001
40
0
40
0
40
0
40
0
40
1
40
1
40
1
40
1
41
1
41
1
41
1
41
1
10
-24.450726946194958
20
-9.0168571949005294
30
0
10
-24.463953892389931
20
-8.7324349562327264
30
0
10
-24.463953892389931
20
-8.4480026245117301
30
0
10
-24.497028827667222
20
-8.1668808142344229
30
0
0
SPLINE
5
333
100
AcDbEntity
8
0
100
AcDbSpline
70
4
71
3
72
8
73
4
74
0
42
0.000000001
43
0.0000000001
44
0.0000000001
40
0
40
0
40
0
40
0
40
1
40
1
40
1
40
1
41
1
41
1
41
1
41
1
10
-40.990495800971985
20
-10.531602430343657
30
0
10
-39.353387435277298
20
-13.038525072733576
30
0
10
-37.441773255666099
20
-15.333786296844497
30
0
10
-35.285417675971985
20
-17.40415410995486
30
0
0
SPLINE
5
334
100
AcDbEntity
8
0
100
AcDbSpline
70
4
71
3
72
8
73
4
74
0
42
0.000000001
43
0.0000000001
44
0.0000000001
40
0
40
0
40
0
40
0
40
1
40
1
40
1
40
1
41
1
41
1
41
1
41
1
10
-29.391821503639221
20
5.3467080911000497
30
0
10
-30.069817304611206
20
6.4116564114888437
30
0
10
-30.830495397249841
20
7.4170759042103906
30
0
10
-31.855752786000565
20
8.1843599001566432
30
0
0
SPLINE
5
335
100
AcDbEntity
8
0
100
AcDbSpline
70
4
71
3
72
8
73
4
74
0
42
0.000000001
43
0.0000000001
44
0.0000000001
40
0
40
0
40
0
40
0
40
1
40
1
40
1
40
1
41
1
41
1
41
1
41
1
10
-8.4070669809977154
20
24.287563832600888
30
0
10
-8.9395360946655149
20
24.022984536488835
30
0
10
-9.4323294162750102
20
23.695555798212673
30
0
10
-9.852351824442529
20
23.282144339879345
30
0
0
SPLINE
5
336
100
AcDbEntity
8
0
100
AcDbSpline
70
4
71
3
72
8
73
4
74
0
42
0.000000001
43
0.0000000001
44
0.0000000001
40
0
40
0
40
0
40
0
40
1
40
1
40
1
40
1
41
1
41
1
41
1
41
1
10
14.330583413441984
20
-52.653284438451173
30
0
10
17.82639312744142
20
-53.308121728897113
30
0
10
21.31558179855347
20
-53.615697431564357
30
0
10
24.844466447830218
20
-52.84180248578393
30
0
0
SPLINE
5
337
100
AcDbEntity
8
0
100
AcDbSpline
70
4
71
3
72
8
73
4
74
0
42
0.000000001
43
0.0000000001
44
0.0000000001
40
0
40
0
40
0
40
0
40
1
40
1
40
1
40
1
41
1
41
1
41
1
41
1
10
-14.161732276280716
20
27.899130773544293
30
0
10
-14.20143330097198
20
27.928895187377911
30
0
10
-14.237813711166371
20
27.955349079767842
30
0
10
-14.270883599917088
20
27.985123586654662
30
0
0
SPLINE
5
338
100
AcDbEntity
8
0
100
AcDbSpline
70
4
71
3
72
8
73
4
74
0
42
0.000000001
43
0.0000000001
44
0.0000000001
40
0
40
0
40
0
40
0
40
1
40
1
40
1
40
1
41
1
41
1
41
1
41
1
10
-4.8550187746683644
20
31.00467240015665
30
0
10
-4.8186434110005578
20
30.664021762212116
30
0
10
-4.8054114182790064
20
30.429206879933673
30
0
10
-5.2684302330017001
20
30.55488557815551
30
0
0
SPLINE
5
339
100
AcDbEntity
8
0
100
AcDbSpline
70
4
71
3
72
8
73
4
74
0
42
0.000000001
43
0.0000000001
44
0.0000000001
40
0
40
0
40
0
40
0
40
1
40
1
40
1
40
1
41
1
41
1
41
1
41
1
10
-4.3754574457804303
20
36.547696463267002
30
0
10
-4.8682406743367457
20
34.731996568044018
30
0
10
-5.0501477718353138
20
32.883221737543728
30
0
10
-4.8550187746683644
20
31.00467240015665
30
0
0
SPLINE
5
340
100
AcDbEntity
8
0
100
AcDbSpline
70
4
71
3
72
8
73
4
74
0
42
0.000000001
43
0.0000000001
44
0.0000000001
40
0
40
0
40
0
40
0
40
1
40
1
40
1
40
1
41
1
41
1
41
1
41
1
10
-8.4368213017781439
20
36.990882428487119
30
0
10
-7.1370580991109067
20
38.584999434153225
30
0
10
-5.3808870315551616
20
39.501115592320744
30
0
10
-3.6677022775014079
20
40.499914042154934
30
0
0
SPLINE
5
341
100
AcDbEntity
8
0
100
AcDbSpline
70
4
71
3
72
8
73
4
74
0
42
0.000000001
43
0.0000000001
44
0.0000000001
40
0
40
0
40
0
40
0
40
1
40
1
40
1
40
1
41
1
41
1
41
1
41
1
10
-13.367984294891347
20
28.537435642878211
30
0
10
-13.635874112447093
20
28.329074652989682
30
0
10
-13.89715298016865
20
28.110792191823315
30
0
10
-14.161732276280716
20
27.899130773544293
30
0
0
SPLINE
5
342
100
AcDbEntity
8
0
100
AcDbSpline
70
4
71
3
72
8
73
4
74
0
42
0.000000001
43
0.0000000001
44
0.0000000001
40
0
40
0
40
0
40
0
40
1
40
1
40
1
40
1
41
1
41
1
41
1
41
1
10
-5.2684302330017001
20
30.55488557815551
30
0
10
-8.3475179672241069
20
31.408162387212112
30
0
10
-10.970197836558018
20
30.419285408655799
30
0
10
-13.367984294891347
20
28.537435642878211
30
0
0
SPLINE
5
343
100
AcDbEntity
8
0
100
AcDbSpline
70
4
71
3
72
8
73
4
74
0
42
0.000000001
43
0.0000000001
44
0.0000000001
40
0
40
0
40
0
40
0
40
1
40
1
40
1
40
1
41
1
41
1
41
1
41
1
10
-3.6677022775014079
20
40.499914042154934
30
0
10
-3.5717879931131868
20
40.55614244143166
30
0
10
-3.4428088665008483
20
40.648746204376209
30
0
10
-3.3435840606689382
20
40.519756984710696
30
0
0
ENDSEC
0
SECTION
2
OBJECTS
0
DICTIONARY
5
C
100
AcDbDictionary
3
ACAD_GROUP
350
D
3
ACAD_MLINESTYLE
350
17
0
DICTIONARY
5
D
100
AcDbDictionary
0
DICTIONARY
5
1A
330
C
100
AcDbDictionary
0
DICTIONARY
5
17
100
AcDbDictionary
0
ENDSEC
0
EOF
